solid CATIA STL
  facet normal  0.000000e+000  0.000000e+000  1.000000e+000
    outer loop
      vertex -5.650000e+000  1.565000e+001  8.000000e+000
      vertex -5.650000e+000  5.650000e+000  8.000000e+000
      vertex -4.150000e+000  1.415000e+001  8.000000e+000
    endloop
  endfacet
  facet normal  0.000000e+000  0.000000e+000  1.000000e+000
    outer loop
      vertex -4.150000e+000  1.415000e+001  8.000000e+000
      vertex -5.650000e+000  5.650000e+000  8.000000e+000
      vertex -4.150000e+000  5.850000e+000  8.000000e+000
    endloop
  endfacet
  facet normal  -0.000000e+000  0.000000e+000  1.000000e+000
    outer loop
      vertex -1.565000e+001  5.650000e+000  8.000000e+000
      vertex -1.565000e+001 -4.440892e-015  8.000000e+000
      vertex -1.415000e+001 -4.150000e+000  8.000000e+000
    endloop
  endfacet
  facet normal  0.000000e+000  -0.000000e+000  1.000000e+000
    outer loop
      vertex -1.565000e+001  5.650000e+000  8.000000e+000
      vertex -1.415000e+001 -4.150000e+000  8.000000e+000
      vertex -1.415000e+001  4.150000e+000  8.000000e+000
    endloop
  endfacet
  facet normal  0.000000e+000  -0.000000e+000  9.999999e-001
    outer loop
      vertex -1.565000e+001  5.650000e+000  8.000000e+000
      vertex -1.415000e+001  4.150000e+000  8.000000e+000
      vertex -5.850000e+000  4.150000e+000  8.000000e+000
    endloop
  endfacet
  facet normal  0.000000e+000  -0.000000e+000  1.000000e+000
    outer loop
      vertex -1.565000e+001  5.650000e+000  8.000000e+000
      vertex -5.850000e+000  4.150000e+000  8.000000e+000
      vertex -5.650000e+000  5.650000e+000  8.000000e+000
    endloop
  endfacet
  facet normal  -0.000000e+000  0.000000e+000  1.000000e+000
    outer loop
      vertex  5.650000e+000 -5.650000e+000  8.000000e+000
      vertex  4.150000e+000 -5.850000e+000  8.000000e+000
      vertex  5.650000e+000 -1.565000e+001  8.000000e+000
    endloop
  endfacet
  facet normal  0.000000e+000  0.000000e+000  9.999999e-001
    outer loop
      vertex  5.650000e+000 -1.565000e+001  8.000000e+000
      vertex  4.150000e+000 -5.850000e+000  8.000000e+000
      vertex  4.150000e+000 -1.415000e+001  8.000000e+000
    endloop
  endfacet
  facet normal  0.000000e+000  0.000000e+000  1.000000e+000
    outer loop
      vertex  5.650000e+000 -1.565000e+001  8.000000e+000
      vertex  4.150000e+000 -1.415000e+001  8.000000e+000
      vertex  0.000000e+000 -1.565000e+001  8.000000e+000
    endloop
  endfacet
  facet normal  0.000000e+000  -0.000000e+000  1.000000e+000
    outer loop
      vertex  0.000000e+000 -1.565000e+001  8.000000e+000
      vertex  4.150000e+000 -1.415000e+001  8.000000e+000
      vertex -4.150000e+000 -1.415000e+001  8.000000e+000
    endloop
  endfacet
  facet normal  0.000000e+000  0.000000e+000  1.000000e+000
    outer loop
      vertex  0.000000e+000 -1.565000e+001  8.000000e+000
      vertex -4.150000e+000 -1.415000e+001  8.000000e+000
      vertex -5.650000e+000 -1.565000e+001  8.000000e+000
    endloop
  endfacet
  facet normal  0.000000e+000  0.000000e+000  1.000000e+000
    outer loop
      vertex  1.565000e+001 -5.650000e+000  8.000000e+000
      vertex  1.415000e+001 -4.150000e+000  8.000000e+000
      vertex  5.650000e+000 -5.650000e+000  8.000000e+000
    endloop
  endfacet
  facet normal  0.000000e+000  0.000000e+000  1.000000e+000
    outer loop
      vertex  5.650000e+000 -5.650000e+000  8.000000e+000
      vertex  1.415000e+001 -4.150000e+000  8.000000e+000
      vertex  5.850000e+000 -4.150000e+000  8.000000e+000
    endloop
  endfacet
  facet normal  0.000000e+000  0.000000e+000  1.000000e+000
    outer loop
      vertex  5.650000e+000 -5.650000e+000  8.000000e+000
      vertex  5.850000e+000 -4.150000e+000  8.000000e+000
      vertex  4.150000e+000 -5.850000e+000  8.000000e+000
    endloop
  endfacet
  facet normal  0.000000e+000  -0.000000e+000  1.000000e+000
    outer loop
      vertex  4.150000e+000 -5.850000e+000  8.000000e+000
      vertex  5.850000e+000 -4.150000e+000  8.000000e+000
      vertex  4.000000e+000 -4.000000e+000  8.000000e+000
    endloop
  endfacet
  facet normal  0.000000e+000  0.000000e+000  1.000000e+000
    outer loop
      vertex  4.150000e+000 -5.850000e+000  8.000000e+000
      vertex  4.000000e+000 -4.000000e+000  8.000000e+000
      vertex -4.150000e+000 -5.850000e+000  8.000000e+000
    endloop
  endfacet
  facet normal  0.000000e+000  0.000000e+000  9.999999e-001
    outer loop
      vertex -4.150000e+000 -5.850000e+000  8.000000e+000
      vertex  4.000000e+000 -4.000000e+000  8.000000e+000
      vertex -4.000000e+000 -4.000000e+000  8.000000e+000
    endloop
  endfacet
  facet normal  0.000000e+000  0.000000e+000  1.000000e+000
    outer loop
      vertex -4.150000e+000 -5.850000e+000  8.000000e+000
      vertex -4.000000e+000 -4.000000e+000  8.000000e+000
      vertex -5.650000e+000 -5.650000e+000  8.000000e+000
    endloop
  endfacet
  facet normal  0.000000e+000  -0.000000e+000  1.000000e+000
    outer loop
      vertex -5.650000e+000 -5.650000e+000  8.000000e+000
      vertex -4.000000e+000 -4.000000e+000  8.000000e+000
      vertex -5.850000e+000 -4.150000e+000  8.000000e+000
    endloop
  endfacet
  facet normal  0.000000e+000  0.000000e+000  1.000000e+000
    outer loop
      vertex -5.650000e+000 -5.650000e+000  8.000000e+000
      vertex -5.850000e+000 -4.150000e+000  8.000000e+000
      vertex -1.565000e+001 -5.650000e+000  8.000000e+000
    endloop
  endfacet
  facet normal  0.000000e+000  0.000000e+000  9.999999e-001
    outer loop
      vertex -1.565000e+001 -5.650000e+000  8.000000e+000
      vertex -5.850000e+000 -4.150000e+000  8.000000e+000
      vertex -1.415000e+001 -4.150000e+000  8.000000e+000
    endloop
  endfacet
  facet normal  0.000000e+000  0.000000e+000  1.000000e+000
    outer loop
      vertex -1.565000e+001 -5.650000e+000  8.000000e+000
      vertex -1.415000e+001 -4.150000e+000  8.000000e+000
      vertex -1.565000e+001 -4.440892e-015  8.000000e+000
    endloop
  endfacet
  facet normal  0.000000e+000  0.000000e+000  1.000000e+000
    outer loop
      vertex -5.650000e+000  5.650000e+000  8.000000e+000
      vertex -5.850000e+000  4.150000e+000  8.000000e+000
      vertex -4.150000e+000  5.850000e+000  8.000000e+000
    endloop
  endfacet
  facet normal  0.000000e+000  0.000000e+000  1.000000e+000
    outer loop
      vertex -4.150000e+000  5.850000e+000  8.000000e+000
      vertex -5.850000e+000  4.150000e+000  8.000000e+000
      vertex -4.000000e+000  4.000000e+000  8.000000e+000
    endloop
  endfacet
  facet normal  0.000000e+000  -0.000000e+000  1.000000e+000
    outer loop
      vertex -4.150000e+000  5.850000e+000  8.000000e+000
      vertex -4.000000e+000  4.000000e+000  8.000000e+000
      vertex  4.150000e+000  5.850000e+000  8.000000e+000
    endloop
  endfacet
  facet normal  0.000000e+000  0.000000e+000  9.999999e-001
    outer loop
      vertex  4.150000e+000  5.850000e+000  8.000000e+000
      vertex -4.000000e+000  4.000000e+000  8.000000e+000
      vertex  4.000000e+000  4.000000e+000  8.000000e+000
    endloop
  endfacet
  facet normal  0.000000e+000  0.000000e+000  1.000000e+000
    outer loop
      vertex  4.150000e+000  5.850000e+000  8.000000e+000
      vertex  4.000000e+000  4.000000e+000  8.000000e+000
      vertex  5.650000e+000  5.650000e+000  8.000000e+000
    endloop
  endfacet
  facet normal  0.000000e+000  0.000000e+000  1.000000e+000
    outer loop
      vertex  5.650000e+000  5.650000e+000  8.000000e+000
      vertex  4.000000e+000  4.000000e+000  8.000000e+000
      vertex  5.850000e+000  4.150000e+000  8.000000e+000
    endloop
  endfacet
  facet normal  0.000000e+000  -0.000000e+000  1.000000e+000
    outer loop
      vertex  5.650000e+000  5.650000e+000  8.000000e+000
      vertex  5.850000e+000  4.150000e+000  8.000000e+000
      vertex  1.565000e+001  5.650000e+000  8.000000e+000
    endloop
  endfacet
  facet normal  0.000000e+000  0.000000e+000  9.999999e-001
    outer loop
      vertex  1.565000e+001  5.650000e+000  8.000000e+000
      vertex  5.850000e+000  4.150000e+000  8.000000e+000
      vertex  1.415000e+001  4.150000e+000  8.000000e+000
    endloop
  endfacet
  facet normal  -0.000000e+000  0.000000e+000  1.000000e+000
    outer loop
      vertex  1.565000e+001  5.650000e+000  8.000000e+000
      vertex  1.415000e+001  4.150000e+000  8.000000e+000
      vertex  1.565000e+001  4.078874e-015  8.000000e+000
    endloop
  endfacet
  facet normal  0.000000e+000  0.000000e+000  1.000000e+000
    outer loop
      vertex  1.565000e+001  4.078874e-015  8.000000e+000
      vertex  1.415000e+001  4.150000e+000  8.000000e+000
      vertex  1.415000e+001 -4.150000e+000  8.000000e+000
    endloop
  endfacet
  facet normal  -0.000000e+000  0.000000e+000  1.000000e+000
    outer loop
      vertex  1.565000e+001  4.078874e-015  8.000000e+000
      vertex  1.415000e+001 -4.150000e+000  8.000000e+000
      vertex  1.565000e+001 -5.650000e+000  8.000000e+000
    endloop
  endfacet
  facet normal  0.000000e+000  0.000000e+000  1.000000e+000
    outer loop
      vertex  4.150000e+000  5.850000e+000  8.000000e+000
      vertex  5.650000e+000  5.650000e+000  8.000000e+000
      vertex  4.150000e+000  1.415000e+001  8.000000e+000
    endloop
  endfacet
  facet normal  -0.000000e+000  0.000000e+000  1.000000e+000
    outer loop
      vertex  4.150000e+000  1.415000e+001  8.000000e+000
      vertex  5.650000e+000  5.650000e+000  8.000000e+000
      vertex  5.650000e+000  1.565000e+001  8.000000e+000
    endloop
  endfacet
  facet normal  0.000000e+000  0.000000e+000  1.000000e+000
    outer loop
      vertex  4.150000e+000  1.415000e+001  8.000000e+000
      vertex  5.650000e+000  1.565000e+001  8.000000e+000
      vertex -4.150000e+000  1.415000e+001  8.000000e+000
    endloop
  endfacet
  facet normal  0.000000e+000  0.000000e+000  1.000000e+000
    outer loop
      vertex -4.150000e+000  1.415000e+001  8.000000e+000
      vertex  5.650000e+000  1.565000e+001  8.000000e+000
      vertex  0.000000e+000  1.565000e+001  8.000000e+000
    endloop
  endfacet
  facet normal  0.000000e+000  0.000000e+000  1.000000e+000
    outer loop
      vertex -4.150000e+000  1.415000e+001  8.000000e+000
      vertex  0.000000e+000  1.565000e+001  8.000000e+000
      vertex -5.650000e+000  1.565000e+001  8.000000e+000
    endloop
  endfacet
  facet normal  0.000000e+000  0.000000e+000  9.999999e-001
    outer loop
      vertex -4.150000e+000 -1.415000e+001  8.000000e+000
      vertex -4.150000e+000 -5.850000e+000  8.000000e+000
      vertex -5.650000e+000 -1.565000e+001  8.000000e+000
    endloop
  endfacet
  facet normal  0.000000e+000  0.000000e+000  1.000000e+000
    outer loop
      vertex -5.650000e+000 -1.565000e+001  8.000000e+000
      vertex -4.150000e+000 -5.850000e+000  8.000000e+000
      vertex -5.650000e+000 -5.650000e+000  8.000000e+000
    endloop
  endfacet
  facet normal  0.000000e+000  0.000000e+000  1.000000e+000
    outer loop
      vertex -5.850000e+000 -4.150000e+000  8.000000e+000
      vertex -4.000000e+000 -4.000000e+000  8.000000e+000
      vertex -5.850000e+000  4.150000e+000  8.000000e+000
    endloop
  endfacet
  facet normal  0.000000e+000  0.000000e+000  9.999999e-001
    outer loop
      vertex -5.850000e+000  4.150000e+000  8.000000e+000
      vertex -4.000000e+000 -4.000000e+000  8.000000e+000
      vertex -4.000000e+000  4.000000e+000  8.000000e+000
    endloop
  endfacet
  facet normal  0.000000e+000  0.000000e+000  9.999999e-001
    outer loop
      vertex  4.000000e+000 -4.000000e+000  8.000000e+000
      vertex  5.850000e+000 -4.150000e+000  8.000000e+000
      vertex  4.000000e+000  4.000000e+000  8.000000e+000
    endloop
  endfacet
  facet normal  -0.000000e+000  0.000000e+000  1.000000e+000
    outer loop
      vertex  4.000000e+000  4.000000e+000  8.000000e+000
      vertex  5.850000e+000 -4.150000e+000  8.000000e+000
      vertex  5.850000e+000  4.150000e+000  8.000000e+000
    endloop
  endfacet
  facet normal  0.000000e+000  0.000000e+000 -1.000000e+000
    outer loop
      vertex -4.150000e+000  1.415000e+001  0.000000e+000
      vertex -5.650000e+000  5.650000e+000  0.000000e+000
      vertex -5.650000e+000  1.565000e+001  0.000000e+000
    endloop
  endfacet
  facet normal  0.000000e+000  0.000000e+000 -1.000000e+000
    outer loop
      vertex -4.150000e+000  5.850000e+000  0.000000e+000
      vertex -5.650000e+000  5.650000e+000  0.000000e+000
      vertex -4.150000e+000  1.415000e+001  0.000000e+000
    endloop
  endfacet
  facet normal  -0.000000e+000  0.000000e+000 -1.000000e+000
    outer loop
      vertex -1.565000e+001  5.650000e+000  0.000000e+000
      vertex -5.650000e+000  5.650000e+000  0.000000e+000
      vertex -5.850000e+000  4.150000e+000  0.000000e+000
    endloop
  endfacet
  facet normal  0.000000e+000  0.000000e+000 -9.999999e-001
    outer loop
      vertex -1.565000e+001  5.650000e+000  0.000000e+000
      vertex -5.850000e+000  4.150000e+000  0.000000e+000
      vertex -1.415000e+001  4.150000e+000  0.000000e+000
    endloop
  endfacet
  facet normal  -0.000000e+000  -0.000000e+000 -1.000000e+000
    outer loop
      vertex -1.565000e+001  5.650000e+000  0.000000e+000
      vertex -1.415000e+001  4.150000e+000  0.000000e+000
      vertex -1.415000e+001 -4.150000e+000  0.000000e+000
    endloop
  endfacet
  facet normal  0.000000e+000  0.000000e+000 -1.000000e+000
    outer loop
      vertex -1.565000e+001  5.650000e+000  0.000000e+000
      vertex -1.415000e+001 -4.150000e+000  0.000000e+000
      vertex -1.565000e+001 -4.440892e-015  0.000000e+000
    endloop
  endfacet
  facet normal  0.000000e+000  -0.000000e+000 -1.000000e+000
    outer loop
      vertex -5.650000e+000 -1.565000e+001  0.000000e+000
      vertex -4.150000e+000 -1.415000e+001  0.000000e+000
      vertex  0.000000e+000 -1.565000e+001  0.000000e+000
    endloop
  endfacet
  facet normal  0.000000e+000  0.000000e+000 -1.000000e+000
    outer loop
      vertex  0.000000e+000 -1.565000e+001  0.000000e+000
      vertex -4.150000e+000 -1.415000e+001  0.000000e+000
      vertex  4.150000e+000 -1.415000e+001  0.000000e+000
    endloop
  endfacet
  facet normal  0.000000e+000  -0.000000e+000 -1.000000e+000
    outer loop
      vertex  0.000000e+000 -1.565000e+001  0.000000e+000
      vertex  4.150000e+000 -1.415000e+001  0.000000e+000
      vertex  5.650000e+000 -1.565000e+001  0.000000e+000
    endloop
  endfacet
  facet normal  0.000000e+000  0.000000e+000 -9.999999e-001
    outer loop
      vertex  5.650000e+000 -1.565000e+001  0.000000e+000
      vertex  4.150000e+000 -1.415000e+001  0.000000e+000
      vertex  4.150000e+000 -5.850000e+000  0.000000e+000
    endloop
  endfacet
  facet normal  0.000000e+000  0.000000e+000 -1.000000e+000
    outer loop
      vertex  5.650000e+000 -1.565000e+001  0.000000e+000
      vertex  4.150000e+000 -5.850000e+000  0.000000e+000
      vertex  5.650000e+000 -5.650000e+000  0.000000e+000
    endloop
  endfacet
  facet normal  -0.000000e+000  0.000000e+000 -1.000000e+000
    outer loop
      vertex -1.565000e+001 -4.440892e-015  0.000000e+000
      vertex -1.415000e+001 -4.150000e+000  0.000000e+000
      vertex -1.565000e+001 -5.650000e+000  0.000000e+000
    endloop
  endfacet
  facet normal  0.000000e+000  0.000000e+000 -9.999999e-001
    outer loop
      vertex -1.565000e+001 -5.650000e+000  0.000000e+000
      vertex -1.415000e+001 -4.150000e+000  0.000000e+000
      vertex -5.850000e+000 -4.150000e+000  0.000000e+000
    endloop
  endfacet
  facet normal  0.000000e+000  -0.000000e+000 -1.000000e+000
    outer loop
      vertex -1.565000e+001 -5.650000e+000  0.000000e+000
      vertex -5.850000e+000 -4.150000e+000  0.000000e+000
      vertex -5.650000e+000 -5.650000e+000  0.000000e+000
    endloop
  endfacet
  facet normal  0.000000e+000  0.000000e+000 -1.000000e+000
    outer loop
      vertex -5.650000e+000 -5.650000e+000  0.000000e+000
      vertex -5.850000e+000 -4.150000e+000  0.000000e+000
      vertex -4.000000e+000 -4.000000e+000  0.000000e+000
    endloop
  endfacet
  facet normal  0.000000e+000  0.000000e+000 -1.000000e+000
    outer loop
      vertex -5.650000e+000 -5.650000e+000  0.000000e+000
      vertex -4.000000e+000 -4.000000e+000  0.000000e+000
      vertex -4.150000e+000 -5.850000e+000  0.000000e+000
    endloop
  endfacet
  facet normal  0.000000e+000  0.000000e+000 -9.999999e-001
    outer loop
      vertex -4.150000e+000 -5.850000e+000  0.000000e+000
      vertex -4.000000e+000 -4.000000e+000  0.000000e+000
      vertex  4.000000e+000 -4.000000e+000  0.000000e+000
    endloop
  endfacet
  facet normal  0.000000e+000  -0.000000e+000 -1.000000e+000
    outer loop
      vertex -4.150000e+000 -5.850000e+000  0.000000e+000
      vertex  4.000000e+000 -4.000000e+000  0.000000e+000
      vertex  4.150000e+000 -5.850000e+000  0.000000e+000
    endloop
  endfacet
  facet normal  0.000000e+000  0.000000e+000 -1.000000e+000
    outer loop
      vertex  4.150000e+000 -5.850000e+000  0.000000e+000
      vertex  4.000000e+000 -4.000000e+000  0.000000e+000
      vertex  5.850000e+000 -4.150000e+000  0.000000e+000
    endloop
  endfacet
  facet normal  0.000000e+000  0.000000e+000 -1.000000e+000
    outer loop
      vertex  4.150000e+000 -5.850000e+000  0.000000e+000
      vertex  5.850000e+000 -4.150000e+000  0.000000e+000
      vertex  5.650000e+000 -5.650000e+000  0.000000e+000
    endloop
  endfacet
  facet normal  0.000000e+000  0.000000e+000 -1.000000e+000
    outer loop
      vertex  5.650000e+000 -5.650000e+000  0.000000e+000
      vertex  5.850000e+000 -4.150000e+000  0.000000e+000
      vertex  1.415000e+001 -4.150000e+000  0.000000e+000
    endloop
  endfacet
  facet normal  0.000000e+000  -0.000000e+000 -1.000000e+000
    outer loop
      vertex  5.650000e+000 -5.650000e+000  0.000000e+000
      vertex  1.415000e+001 -4.150000e+000  0.000000e+000
      vertex  1.565000e+001 -5.650000e+000  0.000000e+000
    endloop
  endfacet
  facet normal  0.000000e+000  0.000000e+000 -1.000000e+000
    outer loop
      vertex  1.565000e+001 -5.650000e+000  0.000000e+000
      vertex  1.415000e+001 -4.150000e+000  0.000000e+000
      vertex  1.565000e+001  4.078874e-015  0.000000e+000
    endloop
  endfacet
  facet normal  -0.000000e+000  0.000000e+000 -1.000000e+000
    outer loop
      vertex  1.565000e+001  4.078874e-015  0.000000e+000
      vertex  1.415000e+001 -4.150000e+000  0.000000e+000
      vertex  1.415000e+001  4.150000e+000  0.000000e+000
    endloop
  endfacet
  facet normal  0.000000e+000  0.000000e+000 -1.000000e+000
    outer loop
      vertex  1.565000e+001  4.078874e-015  0.000000e+000
      vertex  1.415000e+001  4.150000e+000  0.000000e+000
      vertex  1.565000e+001  5.650000e+000  0.000000e+000
    endloop
  endfacet
  facet normal  0.000000e+000  0.000000e+000 -9.999999e-001
    outer loop
      vertex  1.565000e+001  5.650000e+000  0.000000e+000
      vertex  1.415000e+001  4.150000e+000  0.000000e+000
      vertex  5.850000e+000  4.150000e+000  0.000000e+000
    endloop
  endfacet
  facet normal  0.000000e+000  0.000000e+000 -1.000000e+000
    outer loop
      vertex  1.565000e+001  5.650000e+000  0.000000e+000
      vertex  5.850000e+000  4.150000e+000  0.000000e+000
      vertex  5.650000e+000  5.650000e+000  0.000000e+000
    endloop
  endfacet
  facet normal  0.000000e+000  -0.000000e+000 -1.000000e+000
    outer loop
      vertex  5.650000e+000  5.650000e+000  0.000000e+000
      vertex  5.850000e+000  4.150000e+000  0.000000e+000
      vertex  4.000000e+000  4.000000e+000  0.000000e+000
    endloop
  endfacet
  facet normal  0.000000e+000  0.000000e+000 -1.000000e+000
    outer loop
      vertex  5.650000e+000  5.650000e+000  0.000000e+000
      vertex  4.000000e+000  4.000000e+000  0.000000e+000
      vertex  4.150000e+000  5.850000e+000  0.000000e+000
    endloop
  endfacet
  facet normal  0.000000e+000  0.000000e+000 -9.999999e-001
    outer loop
      vertex  4.150000e+000  5.850000e+000  0.000000e+000
      vertex  4.000000e+000  4.000000e+000  0.000000e+000
      vertex -4.000000e+000  4.000000e+000  0.000000e+000
    endloop
  endfacet
  facet normal  0.000000e+000  0.000000e+000 -1.000000e+000
    outer loop
      vertex  4.150000e+000  5.850000e+000  0.000000e+000
      vertex -4.000000e+000  4.000000e+000  0.000000e+000
      vertex -4.150000e+000  5.850000e+000  0.000000e+000
    endloop
  endfacet
  facet normal  0.000000e+000  -0.000000e+000 -1.000000e+000
    outer loop
      vertex -4.150000e+000  5.850000e+000  0.000000e+000
      vertex -4.000000e+000  4.000000e+000  0.000000e+000
      vertex -5.850000e+000  4.150000e+000  0.000000e+000
    endloop
  endfacet
  facet normal  0.000000e+000  0.000000e+000 -1.000000e+000
    outer loop
      vertex -4.150000e+000  5.850000e+000  0.000000e+000
      vertex -5.850000e+000  4.150000e+000  0.000000e+000
      vertex -5.650000e+000  5.650000e+000  0.000000e+000
    endloop
  endfacet
  facet normal  -0.000000e+000  0.000000e+000 -1.000000e+000
    outer loop
      vertex -5.650000e+000  1.565000e+001  0.000000e+000
      vertex  0.000000e+000  1.565000e+001  0.000000e+000
      vertex -4.150000e+000  1.415000e+001  0.000000e+000
    endloop
  endfacet
  facet normal  0.000000e+000  0.000000e+000 -1.000000e+000
    outer loop
      vertex -4.150000e+000  1.415000e+001  0.000000e+000
      vertex  0.000000e+000  1.565000e+001  0.000000e+000
      vertex  5.650000e+000  1.565000e+001  0.000000e+000
    endloop
  endfacet
  facet normal  0.000000e+000  0.000000e+000 -1.000000e+000
    outer loop
      vertex -4.150000e+000  1.415000e+001  0.000000e+000
      vertex  5.650000e+000  1.565000e+001  0.000000e+000
      vertex  4.150000e+000  1.415000e+001  0.000000e+000
    endloop
  endfacet
  facet normal  0.000000e+000  0.000000e+000 -1.000000e+000
    outer loop
      vertex  4.150000e+000  1.415000e+001  0.000000e+000
      vertex  5.650000e+000  1.565000e+001  0.000000e+000
      vertex  5.650000e+000  5.650000e+000  0.000000e+000
    endloop
  endfacet
  facet normal  0.000000e+000  0.000000e+000 -1.000000e+000
    outer loop
      vertex  4.150000e+000  1.415000e+001  0.000000e+000
      vertex  5.650000e+000  5.650000e+000  0.000000e+000
      vertex  4.150000e+000  5.850000e+000  0.000000e+000
    endloop
  endfacet
  facet normal  0.000000e+000  0.000000e+000 -9.999999e-001
    outer loop
      vertex -4.150000e+000 -1.415000e+001  0.000000e+000
      vertex -5.650000e+000 -1.565000e+001  0.000000e+000
      vertex -4.150000e+000 -5.850000e+000  0.000000e+000
    endloop
  endfacet
  facet normal  -0.000000e+000  0.000000e+000 -1.000000e+000
    outer loop
      vertex -4.150000e+000 -5.850000e+000  0.000000e+000
      vertex -5.650000e+000 -1.565000e+001  0.000000e+000
      vertex -5.650000e+000 -5.650000e+000  0.000000e+000
    endloop
  endfacet
  facet normal  0.000000e+000  0.000000e+000 -1.000000e+000
    outer loop
      vertex -5.850000e+000 -4.150000e+000  0.000000e+000
      vertex -5.850000e+000  4.150000e+000  0.000000e+000
      vertex -4.000000e+000 -4.000000e+000  0.000000e+000
    endloop
  endfacet
  facet normal  0.000000e+000  0.000000e+000 -1.000000e+000
    outer loop
      vertex -4.000000e+000 -4.000000e+000  0.000000e+000
      vertex -5.850000e+000  4.150000e+000  0.000000e+000
      vertex -4.000000e+000  4.000000e+000  0.000000e+000
    endloop
  endfacet
  facet normal  0.000000e+000  0.000000e+000 -1.000000e+000
    outer loop
      vertex  4.000000e+000 -4.000000e+000  0.000000e+000
      vertex  4.000000e+000  4.000000e+000  0.000000e+000
      vertex  5.850000e+000 -4.150000e+000  0.000000e+000
    endloop
  endfacet
  facet normal  0.000000e+000  0.000000e+000 -1.000000e+000
    outer loop
      vertex  5.850000e+000 -4.150000e+000  0.000000e+000
      vertex  4.000000e+000  4.000000e+000  0.000000e+000
      vertex  5.850000e+000  4.150000e+000  0.000000e+000
    endloop
  endfacet
  facet normal  0.000000e+000 -1.000000e+000  0.000000e+000
    outer loop
      vertex -4.000000e+000  4.000000e+000  0.000000e+000
      vertex  4.000000e+000  4.000000e+000  0.000000e+000
      vertex -4.000000e+000  4.000000e+000  8.000000e+000
    endloop
  endfacet
  facet normal  0.000000e+000 -1.000000e+000  0.000000e+000
    outer loop
      vertex -4.000000e+000  4.000000e+000  8.000000e+000
      vertex  4.000000e+000  4.000000e+000  0.000000e+000
      vertex  4.000000e+000  4.000000e+000  8.000000e+000
    endloop
  endfacet
  facet normal  1.000000e+000  0.000000e+000  0.000000e+000
    outer loop
      vertex -4.000000e+000 -4.000000e+000  0.000000e+000
      vertex -4.000000e+000  4.000000e+000  0.000000e+000
      vertex -4.000000e+000 -4.000000e+000  8.000000e+000
    endloop
  endfacet
  facet normal  1.000000e+000  -0.000000e+000  0.000000e+000
    outer loop
      vertex -4.000000e+000 -4.000000e+000  8.000000e+000
      vertex -4.000000e+000  4.000000e+000  0.000000e+000
      vertex -4.000000e+000  4.000000e+000  8.000000e+000
    endloop
  endfacet
  facet normal  0.000000e+000  1.000000e+000  0.000000e+000
    outer loop
      vertex  4.000000e+000 -4.000000e+000  0.000000e+000
      vertex -4.000000e+000 -4.000000e+000  0.000000e+000
      vertex  4.000000e+000 -4.000000e+000  8.000000e+000
    endloop
  endfacet
  facet normal  0.000000e+000  1.000000e+000  0.000000e+000
    outer loop
      vertex  4.000000e+000 -4.000000e+000  8.000000e+000
      vertex -4.000000e+000 -4.000000e+000  0.000000e+000
      vertex -4.000000e+000 -4.000000e+000  8.000000e+000
    endloop
  endfacet
  facet normal -1.000000e+000  0.000000e+000  0.000000e+000
    outer loop
      vertex  4.000000e+000  4.000000e+000  0.000000e+000
      vertex  4.000000e+000 -4.000000e+000  0.000000e+000
      vertex  4.000000e+000  4.000000e+000  8.000000e+000
    endloop
  endfacet
  facet normal -1.000000e+000  -0.000000e+000  0.000000e+000
    outer loop
      vertex  4.000000e+000  4.000000e+000  8.000000e+000
      vertex  4.000000e+000 -4.000000e+000  0.000000e+000
      vertex  4.000000e+000 -4.000000e+000  8.000000e+000
    endloop
  endfacet
  facet normal -1.000000e+000  0.000000e+000  0.000000e+000
    outer loop
      vertex  4.150000e+000 -5.850000e+000  8.000000e+000
      vertex  4.150000e+000 -5.850000e+000  0.000000e+000
      vertex  4.150000e+000 -1.415000e+001  8.000000e+000
    endloop
  endfacet
  facet normal -1.000000e+000  0.000000e+000  0.000000e+000
    outer loop
      vertex  4.150000e+000 -1.415000e+001  8.000000e+000
      vertex  4.150000e+000 -5.850000e+000  0.000000e+000
      vertex  4.150000e+000 -1.415000e+001  0.000000e+000
    endloop
  endfacet
  facet normal  0.000000e+000 -1.000000e+000  0.000000e+000
    outer loop
      vertex  4.150000e+000 -5.850000e+000  8.000000e+000
      vertex -4.150000e+000 -5.850000e+000  8.000000e+000
      vertex  4.150000e+000 -5.850000e+000  0.000000e+000
    endloop
  endfacet
  facet normal  0.000000e+000 -1.000000e+000  0.000000e+000
    outer loop
      vertex  4.150000e+000 -5.850000e+000  0.000000e+000
      vertex -4.150000e+000 -5.850000e+000  8.000000e+000
      vertex -4.150000e+000 -5.850000e+000  0.000000e+000
    endloop
  endfacet
  facet normal  1.000000e+000  0.000000e+000  0.000000e+000
    outer loop
      vertex -4.150000e+000 -1.415000e+001  8.000000e+000
      vertex -4.150000e+000 -1.415000e+001  0.000000e+000
      vertex -4.150000e+000 -5.850000e+000  8.000000e+000
    endloop
  endfacet
  facet normal  1.000000e+000  0.000000e+000  0.000000e+000
    outer loop
      vertex -4.150000e+000 -5.850000e+000  8.000000e+000
      vertex -4.150000e+000 -1.415000e+001  0.000000e+000
      vertex -4.150000e+000 -5.850000e+000  0.000000e+000
    endloop
  endfacet
  facet normal  0.000000e+000  1.000000e+000  0.000000e+000
    outer loop
      vertex -4.150000e+000 -1.415000e+001  8.000000e+000
      vertex  4.150000e+000 -1.415000e+001  8.000000e+000
      vertex -4.150000e+000 -1.415000e+001  0.000000e+000
    endloop
  endfacet
  facet normal  0.000000e+000  1.000000e+000  0.000000e+000
    outer loop
      vertex -4.150000e+000 -1.415000e+001  0.000000e+000
      vertex  4.150000e+000 -1.415000e+001  8.000000e+000
      vertex  4.150000e+000 -1.415000e+001  0.000000e+000
    endloop
  endfacet
  facet normal  1.000000e+000  -0.000000e+000  0.000000e+000
    outer loop
      vertex -1.415000e+001  4.150000e+000  8.000000e+000
      vertex -1.415000e+001 -4.150000e+000  8.000000e+000
      vertex -1.415000e+001  4.150000e+000  0.000000e+000
    endloop
  endfacet
  facet normal  1.000000e+000  0.000000e+000  0.000000e+000
    outer loop
      vertex -1.415000e+001  4.150000e+000  0.000000e+000
      vertex -1.415000e+001 -4.150000e+000  8.000000e+000
      vertex -1.415000e+001 -4.150000e+000  0.000000e+000
    endloop
  endfacet
  facet normal  0.000000e+000  1.000000e+000  -0.000000e+000
    outer loop
      vertex -5.850000e+000 -4.150000e+000  8.000000e+000
      vertex -5.850000e+000 -4.150000e+000  0.000000e+000
      vertex -1.415000e+001 -4.150000e+000  8.000000e+000
    endloop
  endfacet
  facet normal  0.000000e+000  1.000000e+000  0.000000e+000
    outer loop
      vertex -1.415000e+001 -4.150000e+000  8.000000e+000
      vertex -5.850000e+000 -4.150000e+000  0.000000e+000
      vertex -1.415000e+001 -4.150000e+000  0.000000e+000
    endloop
  endfacet
  facet normal -1.000000e+000  -0.000000e+000  0.000000e+000
    outer loop
      vertex -5.850000e+000 -4.150000e+000  8.000000e+000
      vertex -5.850000e+000  4.150000e+000  8.000000e+000
      vertex -5.850000e+000 -4.150000e+000  0.000000e+000
    endloop
  endfacet
  facet normal -1.000000e+000  0.000000e+000  0.000000e+000
    outer loop
      vertex -5.850000e+000 -4.150000e+000  0.000000e+000
      vertex -5.850000e+000  4.150000e+000  8.000000e+000
      vertex -5.850000e+000  4.150000e+000  0.000000e+000
    endloop
  endfacet
  facet normal  0.000000e+000 -1.000000e+000  0.000000e+000
    outer loop
      vertex -1.415000e+001  4.150000e+000  8.000000e+000
      vertex -1.415000e+001  4.150000e+000  0.000000e+000
      vertex -5.850000e+000  4.150000e+000  8.000000e+000
    endloop
  endfacet
  facet normal  0.000000e+000 -1.000000e+000  -0.000000e+000
    outer loop
      vertex -5.850000e+000  4.150000e+000  8.000000e+000
      vertex -1.415000e+001  4.150000e+000  0.000000e+000
      vertex -5.850000e+000  4.150000e+000  0.000000e+000
    endloop
  endfacet
  facet normal  0.000000e+000 -1.000000e+000  0.000000e+000
    outer loop
      vertex -4.150000e+000  1.415000e+001  8.000000e+000
      vertex -4.150000e+000  1.415000e+001  0.000000e+000
      vertex  4.150000e+000  1.415000e+001  8.000000e+000
    endloop
  endfacet
  facet normal  0.000000e+000 -1.000000e+000  -0.000000e+000
    outer loop
      vertex  4.150000e+000  1.415000e+001  8.000000e+000
      vertex -4.150000e+000  1.415000e+001  0.000000e+000
      vertex  4.150000e+000  1.415000e+001  0.000000e+000
    endloop
  endfacet
  facet normal  1.000000e+000  0.000000e+000  0.000000e+000
    outer loop
      vertex -4.150000e+000  5.850000e+000  8.000000e+000
      vertex -4.150000e+000  5.850000e+000  0.000000e+000
      vertex -4.150000e+000  1.415000e+001  8.000000e+000
    endloop
  endfacet
  facet normal  1.000000e+000  0.000000e+000  0.000000e+000
    outer loop
      vertex -4.150000e+000  1.415000e+001  8.000000e+000
      vertex -4.150000e+000  5.850000e+000  0.000000e+000
      vertex -4.150000e+000  1.415000e+001  0.000000e+000
    endloop
  endfacet
  facet normal  0.000000e+000  1.000000e+000  -0.000000e+000
    outer loop
      vertex  4.150000e+000  5.850000e+000  8.000000e+000
      vertex  4.150000e+000  5.850000e+000  0.000000e+000
      vertex -4.150000e+000  5.850000e+000  8.000000e+000
    endloop
  endfacet
  facet normal  0.000000e+000  1.000000e+000  0.000000e+000
    outer loop
      vertex -4.150000e+000  5.850000e+000  8.000000e+000
      vertex  4.150000e+000  5.850000e+000  0.000000e+000
      vertex -4.150000e+000  5.850000e+000  0.000000e+000
    endloop
  endfacet
  facet normal -1.000000e+000  0.000000e+000  0.000000e+000
    outer loop
      vertex  4.150000e+000  1.415000e+001  8.000000e+000
      vertex  4.150000e+000  1.415000e+001  0.000000e+000
      vertex  4.150000e+000  5.850000e+000  8.000000e+000
    endloop
  endfacet
  facet normal -1.000000e+000  0.000000e+000  0.000000e+000
    outer loop
      vertex  4.150000e+000  5.850000e+000  8.000000e+000
      vertex  4.150000e+000  1.415000e+001  0.000000e+000
      vertex  4.150000e+000  5.850000e+000  0.000000e+000
    endloop
  endfacet
  facet normal  0.000000e+000 -1.000000e+000  0.000000e+000
    outer loop
      vertex  5.850000e+000  4.150000e+000  8.000000e+000
      vertex  5.850000e+000  4.150000e+000  0.000000e+000
      vertex  1.415000e+001  4.150000e+000  8.000000e+000
    endloop
  endfacet
  facet normal  0.000000e+000 -1.000000e+000  -0.000000e+000
    outer loop
      vertex  1.415000e+001  4.150000e+000  8.000000e+000
      vertex  5.850000e+000  4.150000e+000  0.000000e+000
      vertex  1.415000e+001  4.150000e+000  0.000000e+000
    endloop
  endfacet
  facet normal  1.000000e+000  0.000000e+000  0.000000e+000
    outer loop
      vertex  5.850000e+000 -4.150000e+000  8.000000e+000
      vertex  5.850000e+000 -4.150000e+000  0.000000e+000
      vertex  5.850000e+000  4.150000e+000  8.000000e+000
    endloop
  endfacet
  facet normal  1.000000e+000  0.000000e+000  0.000000e+000
    outer loop
      vertex  5.850000e+000  4.150000e+000  8.000000e+000
      vertex  5.850000e+000 -4.150000e+000  0.000000e+000
      vertex  5.850000e+000  4.150000e+000  0.000000e+000
    endloop
  endfacet
  facet normal  0.000000e+000  1.000000e+000  -0.000000e+000
    outer loop
      vertex  1.415000e+001 -4.150000e+000  8.000000e+000
      vertex  1.415000e+001 -4.150000e+000  0.000000e+000
      vertex  5.850000e+000 -4.150000e+000  8.000000e+000
    endloop
  endfacet
  facet normal  0.000000e+000  1.000000e+000  0.000000e+000
    outer loop
      vertex  5.850000e+000 -4.150000e+000  8.000000e+000
      vertex  1.415000e+001 -4.150000e+000  0.000000e+000
      vertex  5.850000e+000 -4.150000e+000  0.000000e+000
    endloop
  endfacet
  facet normal -1.000000e+000  0.000000e+000  0.000000e+000
    outer loop
      vertex  1.415000e+001  4.150000e+000  8.000000e+000
      vertex  1.415000e+001  4.150000e+000  0.000000e+000
      vertex  1.415000e+001 -4.150000e+000  8.000000e+000
    endloop
  endfacet
  facet normal -1.000000e+000  0.000000e+000  0.000000e+000
    outer loop
      vertex  1.415000e+001 -4.150000e+000  8.000000e+000
      vertex  1.415000e+001  4.150000e+000  0.000000e+000
      vertex  1.415000e+001 -4.150000e+000  0.000000e+000
    endloop
  endfacet
  facet normal  0.000000e+000  1.000000e+000  -0.000000e+000
    outer loop
      vertex  5.650000e+000  1.565000e+001  8.000000e+000
      vertex  5.650000e+000  1.565000e+001  0.000000e+000
      vertex  0.000000e+000  1.565000e+001  8.000000e+000
    endloop
  endfacet
  facet normal  0.000000e+000  1.000000e+000  0.000000e+000
    outer loop
      vertex  0.000000e+000  1.565000e+001  8.000000e+000
      vertex  5.650000e+000  1.565000e+001  0.000000e+000
      vertex  0.000000e+000  1.565000e+001  0.000000e+000
    endloop
  endfacet
  facet normal  1.000000e+000  0.000000e+000  0.000000e+000
    outer loop
      vertex  5.650000e+000  5.650000e+000  8.000000e+000
      vertex  5.650000e+000  5.650000e+000  0.000000e+000
      vertex  5.650000e+000  1.565000e+001  8.000000e+000
    endloop
  endfacet
  facet normal  1.000000e+000  0.000000e+000  0.000000e+000
    outer loop
      vertex  5.650000e+000  1.565000e+001  8.000000e+000
      vertex  5.650000e+000  5.650000e+000  0.000000e+000
      vertex  5.650000e+000  1.565000e+001  0.000000e+000
    endloop
  endfacet
  facet normal  0.000000e+000  1.000000e+000  -0.000000e+000
    outer loop
      vertex  1.565000e+001  5.650000e+000  8.000000e+000
      vertex  1.565000e+001  5.650000e+000  0.000000e+000
      vertex  5.650000e+000  5.650000e+000  8.000000e+000
    endloop
  endfacet
  facet normal  0.000000e+000  1.000000e+000  0.000000e+000
    outer loop
      vertex  5.650000e+000  5.650000e+000  8.000000e+000
      vertex  1.565000e+001  5.650000e+000  0.000000e+000
      vertex  5.650000e+000  5.650000e+000  0.000000e+000
    endloop
  endfacet
  facet normal  1.000000e+000  0.000000e+000  0.000000e+000
    outer loop
      vertex  1.565000e+001  4.078874e-015  8.000000e+000
      vertex  1.565000e+001  4.078874e-015  0.000000e+000
      vertex  1.565000e+001  5.650000e+000  8.000000e+000
    endloop
  endfacet
  facet normal  1.000000e+000  0.000000e+000  0.000000e+000
    outer loop
      vertex  1.565000e+001  5.650000e+000  8.000000e+000
      vertex  1.565000e+001  4.078874e-015  0.000000e+000
      vertex  1.565000e+001  5.650000e+000  0.000000e+000
    endloop
  endfacet
  facet normal  1.000000e+000  0.000000e+000  0.000000e+000
    outer loop
      vertex  1.565000e+001 -5.650000e+000  8.000000e+000
      vertex  1.565000e+001 -5.650000e+000  0.000000e+000
      vertex  1.565000e+001  4.078874e-015  8.000000e+000
    endloop
  endfacet
  facet normal  1.000000e+000  0.000000e+000  0.000000e+000
    outer loop
      vertex  1.565000e+001  4.078874e-015  8.000000e+000
      vertex  1.565000e+001 -5.650000e+000  0.000000e+000
      vertex  1.565000e+001  4.078874e-015  0.000000e+000
    endloop
  endfacet
  facet normal  0.000000e+000 -1.000000e+000  0.000000e+000
    outer loop
      vertex  1.565000e+001 -5.650000e+000  8.000000e+000
      vertex  5.650000e+000 -5.650000e+000  8.000000e+000
      vertex  1.565000e+001 -5.650000e+000  0.000000e+000
    endloop
  endfacet
  facet normal  0.000000e+000 -1.000000e+000  0.000000e+000
    outer loop
      vertex  1.565000e+001 -5.650000e+000  0.000000e+000
      vertex  5.650000e+000 -5.650000e+000  8.000000e+000
      vertex  5.650000e+000 -5.650000e+000  0.000000e+000
    endloop
  endfacet
  facet normal  1.000000e+000  0.000000e+000  0.000000e+000
    outer loop
      vertex  5.650000e+000 -1.565000e+001  8.000000e+000
      vertex  5.650000e+000 -1.565000e+001  0.000000e+000
      vertex  5.650000e+000 -5.650000e+000  8.000000e+000
    endloop
  endfacet
  facet normal  1.000000e+000  0.000000e+000  0.000000e+000
    outer loop
      vertex  5.650000e+000 -5.650000e+000  8.000000e+000
      vertex  5.650000e+000 -1.565000e+001  0.000000e+000
      vertex  5.650000e+000 -5.650000e+000  0.000000e+000
    endloop
  endfacet
  facet normal  0.000000e+000 -1.000000e+000  0.000000e+000
    outer loop
      vertex  5.650000e+000 -1.565000e+001  8.000000e+000
      vertex  0.000000e+000 -1.565000e+001  8.000000e+000
      vertex  5.650000e+000 -1.565000e+001  0.000000e+000
    endloop
  endfacet
  facet normal  0.000000e+000 -1.000000e+000  0.000000e+000
    outer loop
      vertex  5.650000e+000 -1.565000e+001  0.000000e+000
      vertex  0.000000e+000 -1.565000e+001  8.000000e+000
      vertex  0.000000e+000 -1.565000e+001  0.000000e+000
    endloop
  endfacet
  facet normal  0.000000e+000 -1.000000e+000  0.000000e+000
    outer loop
      vertex  0.000000e+000 -1.565000e+001  8.000000e+000
      vertex -5.650000e+000 -1.565000e+001  8.000000e+000
      vertex  0.000000e+000 -1.565000e+001  0.000000e+000
    endloop
  endfacet
  facet normal  0.000000e+000 -1.000000e+000  0.000000e+000
    outer loop
      vertex  0.000000e+000 -1.565000e+001  0.000000e+000
      vertex -5.650000e+000 -1.565000e+001  8.000000e+000
      vertex -5.650000e+000 -1.565000e+001  0.000000e+000
    endloop
  endfacet
  facet normal -1.000000e+000  0.000000e+000  0.000000e+000
    outer loop
      vertex -5.650000e+000 -5.650000e+000  8.000000e+000
      vertex -5.650000e+000 -5.650000e+000  0.000000e+000
      vertex -5.650000e+000 -1.565000e+001  8.000000e+000
    endloop
  endfacet
  facet normal -1.000000e+000  0.000000e+000  0.000000e+000
    outer loop
      vertex -5.650000e+000 -1.565000e+001  8.000000e+000
      vertex -5.650000e+000 -5.650000e+000  0.000000e+000
      vertex -5.650000e+000 -1.565000e+001  0.000000e+000
    endloop
  endfacet
  facet normal  0.000000e+000 -1.000000e+000  0.000000e+000
    outer loop
      vertex -5.650000e+000 -5.650000e+000  8.000000e+000
      vertex -1.565000e+001 -5.650000e+000  8.000000e+000
      vertex -5.650000e+000 -5.650000e+000  0.000000e+000
    endloop
  endfacet
  facet normal  0.000000e+000 -1.000000e+000  0.000000e+000
    outer loop
      vertex -5.650000e+000 -5.650000e+000  0.000000e+000
      vertex -1.565000e+001 -5.650000e+000  8.000000e+000
      vertex -1.565000e+001 -5.650000e+000  0.000000e+000
    endloop
  endfacet
  facet normal -1.000000e+000  0.000000e+000  0.000000e+000
    outer loop
      vertex -1.565000e+001 -4.440892e-015  8.000000e+000
      vertex -1.565000e+001 -4.440892e-015  0.000000e+000
      vertex -1.565000e+001 -5.650000e+000  8.000000e+000
    endloop
  endfacet
  facet normal -1.000000e+000  0.000000e+000  0.000000e+000
    outer loop
      vertex -1.565000e+001 -5.650000e+000  8.000000e+000
      vertex -1.565000e+001 -4.440892e-015  0.000000e+000
      vertex -1.565000e+001 -5.650000e+000  0.000000e+000
    endloop
  endfacet
  facet normal -1.000000e+000  0.000000e+000  0.000000e+000
    outer loop
      vertex -1.565000e+001  5.650000e+000  8.000000e+000
      vertex -1.565000e+001  5.650000e+000  0.000000e+000
      vertex -1.565000e+001 -4.440892e-015  8.000000e+000
    endloop
  endfacet
  facet normal -1.000000e+000  0.000000e+000  0.000000e+000
    outer loop
      vertex -1.565000e+001 -4.440892e-015  8.000000e+000
      vertex -1.565000e+001  5.650000e+000  0.000000e+000
      vertex -1.565000e+001 -4.440892e-015  0.000000e+000
    endloop
  endfacet
  facet normal  0.000000e+000  1.000000e+000  -0.000000e+000
    outer loop
      vertex -5.650000e+000  5.650000e+000  8.000000e+000
      vertex -5.650000e+000  5.650000e+000  0.000000e+000
      vertex -1.565000e+001  5.650000e+000  8.000000e+000
    endloop
  endfacet
  facet normal  0.000000e+000  1.000000e+000  0.000000e+000
    outer loop
      vertex -1.565000e+001  5.650000e+000  8.000000e+000
      vertex -5.650000e+000  5.650000e+000  0.000000e+000
      vertex -1.565000e+001  5.650000e+000  0.000000e+000
    endloop
  endfacet
  facet normal -1.000000e+000  0.000000e+000  0.000000e+000
    outer loop
      vertex -5.650000e+000  1.565000e+001  8.000000e+000
      vertex -5.650000e+000  1.565000e+001  0.000000e+000
      vertex -5.650000e+000  5.650000e+000  8.000000e+000
    endloop
  endfacet
  facet normal -1.000000e+000  0.000000e+000  0.000000e+000
    outer loop
      vertex -5.650000e+000  5.650000e+000  8.000000e+000
      vertex -5.650000e+000  1.565000e+001  0.000000e+000
      vertex -5.650000e+000  5.650000e+000  0.000000e+000
    endloop
  endfacet
  facet normal  0.000000e+000  1.000000e+000  -0.000000e+000
    outer loop
      vertex  0.000000e+000  1.565000e+001  8.000000e+000
      vertex  0.000000e+000  1.565000e+001  0.000000e+000
      vertex -5.650000e+000  1.565000e+001  8.000000e+000
    endloop
  endfacet
  facet normal  0.000000e+000  1.000000e+000  0.000000e+000
    outer loop
      vertex -5.650000e+000  1.565000e+001  8.000000e+000
      vertex  0.000000e+000  1.565000e+001  0.000000e+000
      vertex -5.650000e+000  1.565000e+001  0.000000e+000
    endloop
  endfacet
  facet normal  0.000000e+000  1.000000e+000  -0.000000e+000
    outer loop
      vertex  0.000000e+000  1.565000e+001  8.000000e+000
      vertex  0.000000e+000  1.565000e+001  0.000000e+000
      vertex -5.650000e+000  1.565000e+001  8.000000e+000
    endloop
  endfacet
  facet normal  0.000000e+000  1.000000e+000  0.000000e+000
    outer loop
      vertex -5.650000e+000  1.565000e+001  8.000000e+000
      vertex  0.000000e+000  1.565000e+001  0.000000e+000
      vertex -5.650000e+000  1.565000e+001  0.000000e+000
    endloop
  endfacet
  facet normal -1.000000e+000  0.000000e+000  0.000000e+000
    outer loop
      vertex -5.650000e+000  1.565000e+001  8.000000e+000
      vertex -5.650000e+000  1.565000e+001  0.000000e+000
      vertex -5.650000e+000  5.650000e+000  8.000000e+000
    endloop
  endfacet
  facet normal -1.000000e+000  0.000000e+000  0.000000e+000
    outer loop
      vertex -5.650000e+000  5.650000e+000  8.000000e+000
      vertex -5.650000e+000  1.565000e+001  0.000000e+000
      vertex -5.650000e+000  5.650000e+000  0.000000e+000
    endloop
  endfacet
  facet normal  0.000000e+000  1.000000e+000  -0.000000e+000
    outer loop
      vertex -5.650000e+000  5.650000e+000  8.000000e+000
      vertex -5.650000e+000  5.650000e+000  0.000000e+000
      vertex -1.565000e+001  5.650000e+000  8.000000e+000
    endloop
  endfacet
  facet normal  0.000000e+000  1.000000e+000  0.000000e+000
    outer loop
      vertex -1.565000e+001  5.650000e+000  8.000000e+000
      vertex -5.650000e+000  5.650000e+000  0.000000e+000
      vertex -1.565000e+001  5.650000e+000  0.000000e+000
    endloop
  endfacet
  facet normal -1.000000e+000  0.000000e+000  0.000000e+000
    outer loop
      vertex -1.565000e+001  5.650000e+000  8.000000e+000
      vertex -1.565000e+001  5.650000e+000  0.000000e+000
      vertex -1.565000e+001 -4.440892e-015  8.000000e+000
    endloop
  endfacet
  facet normal -1.000000e+000  0.000000e+000  0.000000e+000
    outer loop
      vertex -1.565000e+001 -4.440892e-015  8.000000e+000
      vertex -1.565000e+001  5.650000e+000  0.000000e+000
      vertex -1.565000e+001 -4.440892e-015  0.000000e+000
    endloop
  endfacet
  facet normal -1.000000e+000  0.000000e+000  0.000000e+000
    outer loop
      vertex -1.565000e+001 -4.440892e-015  8.000000e+000
      vertex -1.565000e+001 -4.440892e-015  0.000000e+000
      vertex -1.565000e+001 -5.650000e+000  8.000000e+000
    endloop
  endfacet
  facet normal -1.000000e+000  0.000000e+000  0.000000e+000
    outer loop
      vertex -1.565000e+001 -5.650000e+000  8.000000e+000
      vertex -1.565000e+001 -4.440892e-015  0.000000e+000
      vertex -1.565000e+001 -5.650000e+000  0.000000e+000
    endloop
  endfacet
  facet normal  0.000000e+000 -1.000000e+000  0.000000e+000
    outer loop
      vertex -5.650000e+000 -5.650000e+000  8.000000e+000
      vertex -1.565000e+001 -5.650000e+000  8.000000e+000
      vertex -5.650000e+000 -5.650000e+000  0.000000e+000
    endloop
  endfacet
  facet normal  0.000000e+000 -1.000000e+000  0.000000e+000
    outer loop
      vertex -1.565000e+001 -5.650000e+000  8.000000e+000
      vertex -1.565000e+001 -5.650000e+000  0.000000e+000
      vertex -5.650000e+000 -5.650000e+000  0.000000e+000
    endloop
  endfacet
  facet normal -1.000000e+000  0.000000e+000  0.000000e+000
    outer loop
      vertex -5.650000e+000 -5.650000e+000  8.000000e+000
      vertex -5.650000e+000 -5.650000e+000  0.000000e+000
      vertex -5.650000e+000 -1.565000e+001  8.000000e+000
    endloop
  endfacet
  facet normal -1.000000e+000  0.000000e+000  0.000000e+000
    outer loop
      vertex -5.650000e+000 -1.565000e+001  8.000000e+000
      vertex -5.650000e+000 -5.650000e+000  0.000000e+000
      vertex -5.650000e+000 -1.565000e+001  0.000000e+000
    endloop
  endfacet
  facet normal  0.000000e+000 -1.000000e+000  0.000000e+000
    outer loop
      vertex  0.000000e+000 -1.565000e+001  8.000000e+000
      vertex -5.650000e+000 -1.565000e+001  8.000000e+000
      vertex  0.000000e+000 -1.565000e+001  0.000000e+000
    endloop
  endfacet
  facet normal  0.000000e+000 -1.000000e+000  0.000000e+000
    outer loop
      vertex -5.650000e+000 -1.565000e+001  8.000000e+000
      vertex -5.650000e+000 -1.565000e+001  0.000000e+000
      vertex  0.000000e+000 -1.565000e+001  0.000000e+000
    endloop
  endfacet
  facet normal  0.000000e+000 -1.000000e+000  0.000000e+000
    outer loop
      vertex  5.650000e+000 -1.565000e+001  8.000000e+000
      vertex  0.000000e+000 -1.565000e+001  8.000000e+000
      vertex  5.650000e+000 -1.565000e+001  0.000000e+000
    endloop
  endfacet
  facet normal  0.000000e+000 -1.000000e+000  0.000000e+000
    outer loop
      vertex  0.000000e+000 -1.565000e+001  8.000000e+000
      vertex  0.000000e+000 -1.565000e+001  0.000000e+000
      vertex  5.650000e+000 -1.565000e+001  0.000000e+000
    endloop
  endfacet
  facet normal  1.000000e+000  0.000000e+000  0.000000e+000
    outer loop
      vertex  5.650000e+000 -1.565000e+001  8.000000e+000
      vertex  5.650000e+000 -1.565000e+001  0.000000e+000
      vertex  5.650000e+000 -5.650000e+000  8.000000e+000
    endloop
  endfacet
  facet normal  1.000000e+000  0.000000e+000  0.000000e+000
    outer loop
      vertex  5.650000e+000 -5.650000e+000  8.000000e+000
      vertex  5.650000e+000 -1.565000e+001  0.000000e+000
      vertex  5.650000e+000 -5.650000e+000  0.000000e+000
    endloop
  endfacet
  facet normal  0.000000e+000 -1.000000e+000  0.000000e+000
    outer loop
      vertex  1.565000e+001 -5.650000e+000  8.000000e+000
      vertex  5.650000e+000 -5.650000e+000  8.000000e+000
      vertex  1.565000e+001 -5.650000e+000  0.000000e+000
    endloop
  endfacet
  facet normal  0.000000e+000 -1.000000e+000  0.000000e+000
    outer loop
      vertex  5.650000e+000 -5.650000e+000  8.000000e+000
      vertex  5.650000e+000 -5.650000e+000  0.000000e+000
      vertex  1.565000e+001 -5.650000e+000  0.000000e+000
    endloop
  endfacet
  facet normal  1.000000e+000  0.000000e+000  0.000000e+000
    outer loop
      vertex  1.565000e+001 -5.650000e+000  8.000000e+000
      vertex  1.565000e+001 -5.650000e+000  0.000000e+000
      vertex  1.565000e+001  4.078874e-015  8.000000e+000
    endloop
  endfacet
  facet normal  1.000000e+000  0.000000e+000  0.000000e+000
    outer loop
      vertex  1.565000e+001  4.078874e-015  8.000000e+000
      vertex  1.565000e+001 -5.650000e+000  0.000000e+000
      vertex  1.565000e+001  4.078874e-015  0.000000e+000
    endloop
  endfacet
  facet normal  1.000000e+000  0.000000e+000  0.000000e+000
    outer loop
      vertex  1.565000e+001  4.078874e-015  8.000000e+000
      vertex  1.565000e+001  4.078874e-015  0.000000e+000
      vertex  1.565000e+001  5.650000e+000  8.000000e+000
    endloop
  endfacet
  facet normal  1.000000e+000  0.000000e+000  0.000000e+000
    outer loop
      vertex  1.565000e+001  5.650000e+000  8.000000e+000
      vertex  1.565000e+001  4.078874e-015  0.000000e+000
      vertex  1.565000e+001  5.650000e+000  0.000000e+000
    endloop
  endfacet
  facet normal  0.000000e+000  1.000000e+000  -0.000000e+000
    outer loop
      vertex  1.565000e+001  5.650000e+000  8.000000e+000
      vertex  1.565000e+001  5.650000e+000  0.000000e+000
      vertex  5.650000e+000  5.650000e+000  8.000000e+000
    endloop
  endfacet
  facet normal  0.000000e+000  1.000000e+000  0.000000e+000
    outer loop
      vertex  5.650000e+000  5.650000e+000  8.000000e+000
      vertex  1.565000e+001  5.650000e+000  0.000000e+000
      vertex  5.650000e+000  5.650000e+000  0.000000e+000
    endloop
  endfacet
  facet normal  1.000000e+000  0.000000e+000  0.000000e+000
    outer loop
      vertex  5.650000e+000  5.650000e+000  8.000000e+000
      vertex  5.650000e+000  5.650000e+000  0.000000e+000
      vertex  5.650000e+000  1.565000e+001  8.000000e+000
    endloop
  endfacet
  facet normal  1.000000e+000  0.000000e+000  0.000000e+000
    outer loop
      vertex  5.650000e+000  1.565000e+001  8.000000e+000
      vertex  5.650000e+000  5.650000e+000  0.000000e+000
      vertex  5.650000e+000  1.565000e+001  0.000000e+000
    endloop
  endfacet
  facet normal  0.000000e+000  1.000000e+000  -0.000000e+000
    outer loop
      vertex  5.650000e+000  1.565000e+001  8.000000e+000
      vertex  5.650000e+000  1.565000e+001  0.000000e+000
      vertex  0.000000e+000  1.565000e+001  8.000000e+000
    endloop
  endfacet
  facet normal  0.000000e+000  1.000000e+000  0.000000e+000
    outer loop
      vertex  0.000000e+000  1.565000e+001  8.000000e+000
      vertex  5.650000e+000  1.565000e+001  0.000000e+000
      vertex  0.000000e+000  1.565000e+001  0.000000e+000
    endloop
  endfacet
  facet normal -1.000000e+000  0.000000e+000  0.000000e+000
    outer loop
      vertex  1.415000e+001  4.150000e+000  8.000000e+000
      vertex  1.415000e+001  4.150000e+000  0.000000e+000
      vertex  1.415000e+001 -4.150000e+000  8.000000e+000
    endloop
  endfacet
  facet normal -1.000000e+000  0.000000e+000  0.000000e+000
    outer loop
      vertex  1.415000e+001 -4.150000e+000  8.000000e+000
      vertex  1.415000e+001  4.150000e+000  0.000000e+000
      vertex  1.415000e+001 -4.150000e+000  0.000000e+000
    endloop
  endfacet
  facet normal  0.000000e+000  1.000000e+000  -0.000000e+000
    outer loop
      vertex  1.415000e+001 -4.150000e+000  8.000000e+000
      vertex  1.415000e+001 -4.150000e+000  0.000000e+000
      vertex  5.850000e+000 -4.150000e+000  8.000000e+000
    endloop
  endfacet
  facet normal  0.000000e+000  1.000000e+000  0.000000e+000
    outer loop
      vertex  5.850000e+000 -4.150000e+000  8.000000e+000
      vertex  1.415000e+001 -4.150000e+000  0.000000e+000
      vertex  5.850000e+000 -4.150000e+000  0.000000e+000
    endloop
  endfacet
  facet normal  1.000000e+000  0.000000e+000  0.000000e+000
    outer loop
      vertex  5.850000e+000 -4.150000e+000  8.000000e+000
      vertex  5.850000e+000 -4.150000e+000  0.000000e+000
      vertex  5.850000e+000  4.150000e+000  8.000000e+000
    endloop
  endfacet
  facet normal  1.000000e+000  0.000000e+000  0.000000e+000
    outer loop
      vertex  5.850000e+000  4.150000e+000  8.000000e+000
      vertex  5.850000e+000 -4.150000e+000  0.000000e+000
      vertex  5.850000e+000  4.150000e+000  0.000000e+000
    endloop
  endfacet
  facet normal  0.000000e+000 -1.000000e+000  0.000000e+000
    outer loop
      vertex  5.850000e+000  4.150000e+000  8.000000e+000
      vertex  5.850000e+000  4.150000e+000  0.000000e+000
      vertex  1.415000e+001  4.150000e+000  8.000000e+000
    endloop
  endfacet
  facet normal  0.000000e+000 -1.000000e+000  0.000000e+000
    outer loop
      vertex  1.415000e+001  4.150000e+000  8.000000e+000
      vertex  5.850000e+000  4.150000e+000  0.000000e+000
      vertex  1.415000e+001  4.150000e+000  0.000000e+000
    endloop
  endfacet
  facet normal -1.000000e+000  0.000000e+000  0.000000e+000
    outer loop
      vertex  4.150000e+000  1.415000e+001  8.000000e+000
      vertex  4.150000e+000  1.415000e+001  0.000000e+000
      vertex  4.150000e+000  5.850000e+000  8.000000e+000
    endloop
  endfacet
  facet normal -1.000000e+000  0.000000e+000  0.000000e+000
    outer loop
      vertex  4.150000e+000  5.850000e+000  8.000000e+000
      vertex  4.150000e+000  1.415000e+001  0.000000e+000
      vertex  4.150000e+000  5.850000e+000  0.000000e+000
    endloop
  endfacet
  facet normal  0.000000e+000  1.000000e+000  -0.000000e+000
    outer loop
      vertex  4.150000e+000  5.850000e+000  8.000000e+000
      vertex  4.150000e+000  5.850000e+000  0.000000e+000
      vertex -4.150000e+000  5.850000e+000  8.000000e+000
    endloop
  endfacet
  facet normal  0.000000e+000  1.000000e+000  0.000000e+000
    outer loop
      vertex -4.150000e+000  5.850000e+000  8.000000e+000
      vertex  4.150000e+000  5.850000e+000  0.000000e+000
      vertex -4.150000e+000  5.850000e+000  0.000000e+000
    endloop
  endfacet
  facet normal  1.000000e+000  0.000000e+000  0.000000e+000
    outer loop
      vertex -4.150000e+000  5.850000e+000  8.000000e+000
      vertex -4.150000e+000  5.850000e+000  0.000000e+000
      vertex -4.150000e+000  1.415000e+001  8.000000e+000
    endloop
  endfacet
  facet normal  1.000000e+000  0.000000e+000  0.000000e+000
    outer loop
      vertex -4.150000e+000  1.415000e+001  8.000000e+000
      vertex -4.150000e+000  5.850000e+000  0.000000e+000
      vertex -4.150000e+000  1.415000e+001  0.000000e+000
    endloop
  endfacet
  facet normal  0.000000e+000 -1.000000e+000  0.000000e+000
    outer loop
      vertex -4.150000e+000  1.415000e+001  8.000000e+000
      vertex -4.150000e+000  1.415000e+001  0.000000e+000
      vertex  4.150000e+000  1.415000e+001  8.000000e+000
    endloop
  endfacet
  facet normal  0.000000e+000 -1.000000e+000  0.000000e+000
    outer loop
      vertex  4.150000e+000  1.415000e+001  8.000000e+000
      vertex -4.150000e+000  1.415000e+001  0.000000e+000
      vertex  4.150000e+000  1.415000e+001  0.000000e+000
    endloop
  endfacet
  facet normal  0.000000e+000 -1.000000e+000  0.000000e+000
    outer loop
      vertex -1.415000e+001  4.150000e+000  8.000000e+000
      vertex -1.415000e+001  4.150000e+000  0.000000e+000
      vertex -5.850000e+000  4.150000e+000  8.000000e+000
    endloop
  endfacet
  facet normal  0.000000e+000 -1.000000e+000  0.000000e+000
    outer loop
      vertex -5.850000e+000  4.150000e+000  8.000000e+000
      vertex -1.415000e+001  4.150000e+000  0.000000e+000
      vertex -5.850000e+000  4.150000e+000  0.000000e+000
    endloop
  endfacet
  facet normal -1.000000e+000  -0.000000e+000  0.000000e+000
    outer loop
      vertex -5.850000e+000 -4.150000e+000  8.000000e+000
      vertex -5.850000e+000  4.150000e+000  8.000000e+000
      vertex -5.850000e+000 -4.150000e+000  0.000000e+000
    endloop
  endfacet
  facet normal -1.000000e+000  0.000000e+000  0.000000e+000
    outer loop
      vertex -5.850000e+000  4.150000e+000  8.000000e+000
      vertex -5.850000e+000  4.150000e+000  0.000000e+000
      vertex -5.850000e+000 -4.150000e+000  0.000000e+000
    endloop
  endfacet
  facet normal  0.000000e+000  1.000000e+000  -0.000000e+000
    outer loop
      vertex -5.850000e+000 -4.150000e+000  8.000000e+000
      vertex -5.850000e+000 -4.150000e+000  0.000000e+000
      vertex -1.415000e+001 -4.150000e+000  8.000000e+000
    endloop
  endfacet
  facet normal  0.000000e+000  1.000000e+000  0.000000e+000
    outer loop
      vertex -1.415000e+001 -4.150000e+000  8.000000e+000
      vertex -5.850000e+000 -4.150000e+000  0.000000e+000
      vertex -1.415000e+001 -4.150000e+000  0.000000e+000
    endloop
  endfacet
  facet normal  1.000000e+000  -0.000000e+000  0.000000e+000
    outer loop
      vertex -1.415000e+001  4.150000e+000  8.000000e+000
      vertex -1.415000e+001 -4.150000e+000  8.000000e+000
      vertex -1.415000e+001  4.150000e+000  0.000000e+000
    endloop
  endfacet
  facet normal  1.000000e+000  0.000000e+000  0.000000e+000
    outer loop
      vertex -1.415000e+001 -4.150000e+000  8.000000e+000
      vertex -1.415000e+001 -4.150000e+000  0.000000e+000
      vertex -1.415000e+001  4.150000e+000  0.000000e+000
    endloop
  endfacet
  facet normal  0.000000e+000  1.000000e+000  0.000000e+000
    outer loop
      vertex -4.150000e+000 -1.415000e+001  8.000000e+000
      vertex  4.150000e+000 -1.415000e+001  8.000000e+000
      vertex -4.150000e+000 -1.415000e+001  0.000000e+000
    endloop
  endfacet
  facet normal  0.000000e+000  1.000000e+000  -0.000000e+000
    outer loop
      vertex  4.150000e+000 -1.415000e+001  8.000000e+000
      vertex  4.150000e+000 -1.415000e+001  0.000000e+000
      vertex -4.150000e+000 -1.415000e+001  0.000000e+000
    endloop
  endfacet
  facet normal  1.000000e+000  0.000000e+000  0.000000e+000
    outer loop
      vertex -4.150000e+000 -1.415000e+001  8.000000e+000
      vertex -4.150000e+000 -1.415000e+001  0.000000e+000
      vertex -4.150000e+000 -5.850000e+000  8.000000e+000
    endloop
  endfacet
  facet normal  1.000000e+000  0.000000e+000  0.000000e+000
    outer loop
      vertex -4.150000e+000 -5.850000e+000  8.000000e+000
      vertex -4.150000e+000 -1.415000e+001  0.000000e+000
      vertex -4.150000e+000 -5.850000e+000  0.000000e+000
    endloop
  endfacet
  facet normal  0.000000e+000 -1.000000e+000  0.000000e+000
    outer loop
      vertex  4.150000e+000 -5.850000e+000  8.000000e+000
      vertex -4.150000e+000 -5.850000e+000  8.000000e+000
      vertex  4.150000e+000 -5.850000e+000  0.000000e+000
    endloop
  endfacet
  facet normal  0.000000e+000 -1.000000e+000  0.000000e+000
    outer loop
      vertex -4.150000e+000 -5.850000e+000  8.000000e+000
      vertex -4.150000e+000 -5.850000e+000  0.000000e+000
      vertex  4.150000e+000 -5.850000e+000  0.000000e+000
    endloop
  endfacet
  facet normal -1.000000e+000  0.000000e+000  0.000000e+000
    outer loop
      vertex  4.150000e+000 -5.850000e+000  8.000000e+000
      vertex  4.150000e+000 -5.850000e+000  0.000000e+000
      vertex  4.150000e+000 -1.415000e+001  8.000000e+000
    endloop
  endfacet
  facet normal -1.000000e+000  0.000000e+000  0.000000e+000
    outer loop
      vertex  4.150000e+000 -1.415000e+001  8.000000e+000
      vertex  4.150000e+000 -5.850000e+000  0.000000e+000
      vertex  4.150000e+000 -1.415000e+001  0.000000e+000
    endloop
  endfacet
  facet normal -1.000000e+000  0.000000e+000  0.000000e+000
    outer loop
      vertex  4.000000e+000  4.000000e+000  0.000000e+000
      vertex  4.000000e+000 -4.000000e+000  0.000000e+000
      vertex  4.000000e+000  4.000000e+000  8.000000e+000
    endloop
  endfacet
  facet normal -1.000000e+000  0.000000e+000  0.000000e+000
    outer loop
      vertex  4.000000e+000  4.000000e+000  8.000000e+000
      vertex  4.000000e+000 -4.000000e+000  0.000000e+000
      vertex  4.000000e+000 -4.000000e+000  8.000000e+000
    endloop
  endfacet
  facet normal  0.000000e+000  1.000000e+000  0.000000e+000
    outer loop
      vertex  4.000000e+000 -4.000000e+000  0.000000e+000
      vertex -4.000000e+000 -4.000000e+000  0.000000e+000
      vertex  4.000000e+000 -4.000000e+000  8.000000e+000
    endloop
  endfacet
  facet normal  0.000000e+000  1.000000e+000  0.000000e+000
    outer loop
      vertex  4.000000e+000 -4.000000e+000  8.000000e+000
      vertex -4.000000e+000 -4.000000e+000  0.000000e+000
      vertex -4.000000e+000 -4.000000e+000  8.000000e+000
    endloop
  endfacet
  facet normal  1.000000e+000  0.000000e+000  0.000000e+000
    outer loop
      vertex -4.000000e+000 -4.000000e+000  0.000000e+000
      vertex -4.000000e+000  4.000000e+000  0.000000e+000
      vertex -4.000000e+000 -4.000000e+000  8.000000e+000
    endloop
  endfacet
  facet normal  1.000000e+000  0.000000e+000  -0.000000e+000
    outer loop
      vertex -4.000000e+000 -4.000000e+000  8.000000e+000
      vertex -4.000000e+000  4.000000e+000  0.000000e+000
      vertex -4.000000e+000  4.000000e+000  8.000000e+000
    endloop
  endfacet
  facet normal  0.000000e+000 -1.000000e+000  0.000000e+000
    outer loop
      vertex -4.000000e+000  4.000000e+000  0.000000e+000
      vertex  4.000000e+000  4.000000e+000  0.000000e+000
      vertex -4.000000e+000  4.000000e+000  8.000000e+000
    endloop
  endfacet
  facet normal  0.000000e+000 -1.000000e+000  0.000000e+000
    outer loop
      vertex -4.000000e+000  4.000000e+000  8.000000e+000
      vertex  4.000000e+000  4.000000e+000  0.000000e+000
      vertex  4.000000e+000  4.000000e+000  8.000000e+000
    endloop
  endfacet
  facet normal  0.000000e+000  0.000000e+000 -1.000000e+000
    outer loop
      vertex  5.650000e+000 -5.650000e+000  0.000000e+000
      vertex  5.650000e+000 -1.565000e+001  0.000000e+000
      vertex  4.150000e+000 -5.850000e+000  0.000000e+000
    endloop
  endfacet
  facet normal  0.000000e+000  0.000000e+000 -9.999999e-001
    outer loop
      vertex  5.650000e+000 -1.565000e+001  0.000000e+000
      vertex  4.150000e+000 -1.415000e+001  0.000000e+000
      vertex  4.150000e+000 -5.850000e+000  0.000000e+000
    endloop
  endfacet
  facet normal  0.000000e+000  0.000000e+000 -1.000000e+000
    outer loop
      vertex  5.650000e+000 -1.565000e+001  0.000000e+000
      vertex  0.000000e+000 -1.565000e+001  0.000000e+000
      vertex  4.150000e+000 -1.415000e+001  0.000000e+000
    endloop
  endfacet
  facet normal  0.000000e+000  0.000000e+000 -1.000000e+000
    outer loop
      vertex  0.000000e+000 -1.565000e+001  0.000000e+000
      vertex -4.150000e+000 -1.415000e+001  0.000000e+000
      vertex  4.150000e+000 -1.415000e+001  0.000000e+000
    endloop
  endfacet
  facet normal  0.000000e+000  0.000000e+000 -1.000000e+000
    outer loop
      vertex  0.000000e+000 -1.565000e+001  0.000000e+000
      vertex -5.650000e+000 -1.565000e+001  0.000000e+000
      vertex -4.150000e+000 -1.415000e+001  0.000000e+000
    endloop
  endfacet
  facet normal  0.000000e+000  0.000000e+000 -1.000000e+000
    outer loop
      vertex  1.565000e+001 -5.650000e+000  0.000000e+000
      vertex  5.650000e+000 -5.650000e+000  0.000000e+000
      vertex  1.415000e+001 -4.150000e+000  0.000000e+000
    endloop
  endfacet
  facet normal  0.000000e+000  -0.000000e+000 -9.999999e-001
    outer loop
      vertex  5.650000e+000 -5.650000e+000  0.000000e+000
      vertex  5.850000e+000 -4.150000e+000  0.000000e+000
      vertex  1.415000e+001 -4.150000e+000  0.000000e+000
    endloop
  endfacet
  facet normal  0.000000e+000  0.000000e+000 -1.000000e+000
    outer loop
      vertex  5.650000e+000 -5.650000e+000  0.000000e+000
      vertex  4.150000e+000 -5.850000e+000  0.000000e+000
      vertex  5.850000e+000 -4.150000e+000  0.000000e+000
    endloop
  endfacet
  facet normal  0.000000e+000  0.000000e+000 -1.000000e+000
    outer loop
      vertex  4.150000e+000 -5.850000e+000  0.000000e+000
      vertex  4.000000e+000 -4.000000e+000  0.000000e+000
      vertex  5.850000e+000 -4.150000e+000  0.000000e+000
    endloop
  endfacet
  facet normal  0.000000e+000  0.000000e+000 -1.000000e+000
    outer loop
      vertex  4.150000e+000 -5.850000e+000  0.000000e+000
      vertex -4.150000e+000 -5.850000e+000  0.000000e+000
      vertex  4.000000e+000 -4.000000e+000  0.000000e+000
    endloop
  endfacet
  facet normal  0.000000e+000  -0.000000e+000 -1.000000e+000
    outer loop
      vertex -4.150000e+000 -5.850000e+000  0.000000e+000
      vertex -4.000000e+000 -4.000000e+000  0.000000e+000
      vertex  4.000000e+000 -4.000000e+000  0.000000e+000
    endloop
  endfacet
  facet normal  0.000000e+000  0.000000e+000 -1.000000e+000
    outer loop
      vertex -4.150000e+000 -5.850000e+000  0.000000e+000
      vertex -5.650000e+000 -5.650000e+000  0.000000e+000
      vertex -4.000000e+000 -4.000000e+000  0.000000e+000
    endloop
  endfacet
  facet normal  0.000000e+000  0.000000e+000 -1.000000e+000
    outer loop
      vertex -5.650000e+000 -5.650000e+000  0.000000e+000
      vertex -5.850000e+000 -4.150000e+000  0.000000e+000
      vertex -4.000000e+000 -4.000000e+000  0.000000e+000
    endloop
  endfacet
  facet normal  0.000000e+000  0.000000e+000 -1.000000e+000
    outer loop
      vertex -5.650000e+000 -5.650000e+000  0.000000e+000
      vertex -1.565000e+001 -5.650000e+000  0.000000e+000
      vertex -5.850000e+000 -4.150000e+000  0.000000e+000
    endloop
  endfacet
  facet normal  0.000000e+000  -0.000000e+000 -9.999999e-001
    outer loop
      vertex -1.565000e+001 -5.650000e+000  0.000000e+000
      vertex -1.415000e+001 -4.150000e+000  0.000000e+000
      vertex -5.850000e+000 -4.150000e+000  0.000000e+000
    endloop
  endfacet
  facet normal  0.000000e+000  0.000000e+000 -1.000000e+000
    outer loop
      vertex -1.565000e+001 -5.650000e+000  0.000000e+000
      vertex -1.565000e+001 -4.440892e-015  0.000000e+000
      vertex -1.415000e+001 -4.150000e+000  0.000000e+000
    endloop
  endfacet
  facet normal  0.000000e+000  0.000000e+000 -1.000000e+000
    outer loop
      vertex -5.650000e+000  5.650000e+000  0.000000e+000
      vertex -4.150000e+000  5.850000e+000  0.000000e+000
      vertex -5.850000e+000  4.150000e+000  0.000000e+000
    endloop
  endfacet
  facet normal  0.000000e+000  0.000000e+000 -1.000000e+000
    outer loop
      vertex -4.150000e+000  5.850000e+000  0.000000e+000
      vertex -4.000000e+000  4.000000e+000  0.000000e+000
      vertex -5.850000e+000  4.150000e+000  0.000000e+000
    endloop
  endfacet
  facet normal  -0.000000e+000  0.000000e+000 -1.000000e+000
    outer loop
      vertex -4.150000e+000  5.850000e+000  0.000000e+000
      vertex  4.150000e+000  5.850000e+000  0.000000e+000
      vertex -4.000000e+000  4.000000e+000  0.000000e+000
    endloop
  endfacet
  facet normal  0.000000e+000  0.000000e+000 -1.000000e+000
    outer loop
      vertex  4.150000e+000  5.850000e+000  0.000000e+000
      vertex  4.000000e+000  4.000000e+000  0.000000e+000
      vertex -4.000000e+000  4.000000e+000  0.000000e+000
    endloop
  endfacet
  facet normal  -0.000000e+000  0.000000e+000 -1.000000e+000
    outer loop
      vertex  4.150000e+000  5.850000e+000  0.000000e+000
      vertex  5.650000e+000  5.650000e+000  0.000000e+000
      vertex  4.000000e+000  4.000000e+000  0.000000e+000
    endloop
  endfacet
  facet normal  -0.000000e+000  0.000000e+000 -1.000000e+000
    outer loop
      vertex  5.650000e+000  5.650000e+000  0.000000e+000
      vertex  5.850000e+000  4.150000e+000  0.000000e+000
      vertex  4.000000e+000  4.000000e+000  0.000000e+000
    endloop
  endfacet
  facet normal  -0.000000e+000  0.000000e+000 -1.000000e+000
    outer loop
      vertex  5.650000e+000  5.650000e+000  0.000000e+000
      vertex  1.565000e+001  5.650000e+000  0.000000e+000
      vertex  5.850000e+000  4.150000e+000  0.000000e+000
    endloop
  endfacet
  facet normal  0.000000e+000  0.000000e+000 -9.999999e-001
    outer loop
      vertex  1.565000e+001  5.650000e+000  0.000000e+000
      vertex  1.415000e+001  4.150000e+000  0.000000e+000
      vertex  5.850000e+000  4.150000e+000  0.000000e+000
    endloop
  endfacet
  facet normal  0.000000e+000  0.000000e+000 -1.000000e+000
    outer loop
      vertex  1.565000e+001  5.650000e+000  0.000000e+000
      vertex  1.565000e+001  4.078874e-015  0.000000e+000
      vertex  1.415000e+001  4.150000e+000  0.000000e+000
    endloop
  endfacet
  facet normal  0.000000e+000  0.000000e+000 -1.000000e+000
    outer loop
      vertex  1.565000e+001  4.078874e-015  0.000000e+000
      vertex  1.415000e+001 -4.150000e+000  0.000000e+000
      vertex  1.415000e+001  4.150000e+000  0.000000e+000
    endloop
  endfacet
  facet normal  0.000000e+000  0.000000e+000 -1.000000e+000
    outer loop
      vertex  1.565000e+001  4.078874e-015  0.000000e+000
      vertex  1.565000e+001 -5.650000e+000  0.000000e+000
      vertex  1.415000e+001 -4.150000e+000  0.000000e+000
    endloop
  endfacet
  facet normal  0.000000e+000  0.000000e+000 -9.999999e-001
    outer loop
      vertex  4.150000e+000  5.850000e+000  0.000000e+000
      vertex  4.150000e+000  1.415000e+001  0.000000e+000
      vertex  5.650000e+000  5.650000e+000  0.000000e+000
    endloop
  endfacet
  facet normal  0.000000e+000  -0.000000e+000 -1.000000e+000
    outer loop
      vertex  4.150000e+000  1.415000e+001  0.000000e+000
      vertex  5.650000e+000  1.565000e+001  0.000000e+000
      vertex  5.650000e+000  5.650000e+000  0.000000e+000
    endloop
  endfacet
  facet normal  0.000000e+000  0.000000e+000 -1.000000e+000
    outer loop
      vertex  4.150000e+000  1.415000e+001  0.000000e+000
      vertex -4.150000e+000  1.415000e+001  0.000000e+000
      vertex  5.650000e+000  1.565000e+001  0.000000e+000
    endloop
  endfacet
  facet normal  0.000000e+000  -0.000000e+000 -1.000000e+000
    outer loop
      vertex -4.150000e+000  1.415000e+001  0.000000e+000
      vertex  0.000000e+000  1.565000e+001  0.000000e+000
      vertex  5.650000e+000  1.565000e+001  0.000000e+000
    endloop
  endfacet
  facet normal  0.000000e+000  0.000000e+000 -1.000000e+000
    outer loop
      vertex -4.150000e+000  1.415000e+001  0.000000e+000
      vertex -5.650000e+000  1.565000e+001  0.000000e+000
      vertex  0.000000e+000  1.565000e+001  0.000000e+000
    endloop
  endfacet
  facet normal  0.000000e+000  0.000000e+000 -9.999999e-001
    outer loop
      vertex -4.150000e+000 -1.415000e+001  0.000000e+000
      vertex -5.650000e+000 -1.565000e+001  0.000000e+000
      vertex -4.150000e+000 -5.850000e+000  0.000000e+000
    endloop
  endfacet
  facet normal  0.000000e+000  0.000000e+000 -1.000000e+000
    outer loop
      vertex -5.650000e+000 -1.565000e+001  0.000000e+000
      vertex -5.650000e+000 -5.650000e+000  0.000000e+000
      vertex -4.150000e+000 -5.850000e+000  0.000000e+000
    endloop
  endfacet
  facet normal  0.000000e+000  0.000000e+000 -1.000000e+000
    outer loop
      vertex -5.850000e+000 -4.150000e+000  0.000000e+000
      vertex -5.850000e+000  4.150000e+000  0.000000e+000
      vertex -4.000000e+000 -4.000000e+000  0.000000e+000
    endloop
  endfacet
  facet normal  -0.000000e+000  -0.000000e+000 -1.000000e+000
    outer loop
      vertex -5.850000e+000  4.150000e+000  0.000000e+000
      vertex -4.000000e+000  4.000000e+000  0.000000e+000
      vertex -4.000000e+000 -4.000000e+000  0.000000e+000
    endloop
  endfacet
  facet normal  0.000000e+000  0.000000e+000 -1.000000e+000
    outer loop
      vertex  4.000000e+000 -4.000000e+000  0.000000e+000
      vertex  4.000000e+000  4.000000e+000  0.000000e+000
      vertex  5.850000e+000 -4.150000e+000  0.000000e+000
    endloop
  endfacet
  facet normal  0.000000e+000  -0.000000e+000 -1.000000e+000
    outer loop
      vertex  4.000000e+000  4.000000e+000  0.000000e+000
      vertex  5.850000e+000  4.150000e+000  0.000000e+000
      vertex  5.850000e+000 -4.150000e+000  0.000000e+000
    endloop
  endfacet
  facet normal  0.000000e+000  0.000000e+000 -1.000000e+000
    outer loop
      vertex -1.565000e+001  5.650000e+000  0.000000e+000
      vertex -1.415000e+001 -4.150000e+000  0.000000e+000
      vertex -1.565000e+001 -4.440892e-015  0.000000e+000
    endloop
  endfacet
  facet normal  -0.000000e+000  -0.000000e+000 -1.000000e+000
    outer loop
      vertex -1.565000e+001  5.650000e+000  0.000000e+000
      vertex -1.415000e+001  4.150000e+000  0.000000e+000
      vertex -1.415000e+001 -4.150000e+000  0.000000e+000
    endloop
  endfacet
  facet normal  0.000000e+000  0.000000e+000 -9.999999e-001
    outer loop
      vertex -1.565000e+001  5.650000e+000  0.000000e+000
      vertex -5.850000e+000  4.150000e+000  0.000000e+000
      vertex -1.415000e+001  4.150000e+000  0.000000e+000
    endloop
  endfacet
  facet normal  -0.000000e+000  0.000000e+000 -1.000000e+000
    outer loop
      vertex -1.565000e+001  5.650000e+000  0.000000e+000
      vertex -5.650000e+000  5.650000e+000  0.000000e+000
      vertex -5.850000e+000  4.150000e+000  0.000000e+000
    endloop
  endfacet
  facet normal  -0.000000e+000  0.000000e+000 -1.000000e+000
    outer loop
      vertex -5.650000e+000  1.565000e+001  0.000000e+000
      vertex -4.150000e+000  1.415000e+001  0.000000e+000
      vertex -5.650000e+000  5.650000e+000  0.000000e+000
    endloop
  endfacet
  facet normal  -0.000000e+000  0.000000e+000 -9.999999e-001
    outer loop
      vertex -4.150000e+000  1.415000e+001  0.000000e+000
      vertex -4.150000e+000  5.850000e+000  0.000000e+000
      vertex -5.650000e+000  5.650000e+000  0.000000e+000
    endloop
  endfacet
  facet normal  -0.000000e+000  0.000000e+000  1.000000e+000
    outer loop
      vertex  5.650000e+000 -5.650000e+000  8.000000e+000
      vertex  4.150000e+000 -5.850000e+000  8.000000e+000
      vertex  5.650000e+000 -1.565000e+001  8.000000e+000
    endloop
  endfacet
  facet normal  0.000000e+000  0.000000e+000  9.999999e-001
    outer loop
      vertex  5.650000e+000 -1.565000e+001  8.000000e+000
      vertex  4.150000e+000 -5.850000e+000  8.000000e+000
      vertex  4.150000e+000 -1.415000e+001  8.000000e+000
    endloop
  endfacet
  facet normal  0.000000e+000  0.000000e+000  1.000000e+000
    outer loop
      vertex  5.650000e+000 -1.565000e+001  8.000000e+000
      vertex  4.150000e+000 -1.415000e+001  8.000000e+000
      vertex  0.000000e+000 -1.565000e+001  8.000000e+000
    endloop
  endfacet
  facet normal  0.000000e+000  0.000000e+000  1.000000e+000
    outer loop
      vertex  0.000000e+000 -1.565000e+001  8.000000e+000
      vertex  4.150000e+000 -1.415000e+001  8.000000e+000
      vertex -4.150000e+000 -1.415000e+001  8.000000e+000
    endloop
  endfacet
  facet normal  0.000000e+000  0.000000e+000  1.000000e+000
    outer loop
      vertex  0.000000e+000 -1.565000e+001  8.000000e+000
      vertex -4.150000e+000 -1.415000e+001  8.000000e+000
      vertex -5.650000e+000 -1.565000e+001  8.000000e+000
    endloop
  endfacet
  facet normal  0.000000e+000  0.000000e+000  1.000000e+000
    outer loop
      vertex  1.565000e+001 -5.650000e+000  8.000000e+000
      vertex  1.415000e+001 -4.150000e+000  8.000000e+000
      vertex  5.650000e+000 -5.650000e+000  8.000000e+000
    endloop
  endfacet
  facet normal  0.000000e+000  0.000000e+000  9.999999e-001
    outer loop
      vertex  5.650000e+000 -5.650000e+000  8.000000e+000
      vertex  1.415000e+001 -4.150000e+000  8.000000e+000
      vertex  5.850000e+000 -4.150000e+000  8.000000e+000
    endloop
  endfacet
  facet normal  0.000000e+000  0.000000e+000  1.000000e+000
    outer loop
      vertex  5.650000e+000 -5.650000e+000  8.000000e+000
      vertex  5.850000e+000 -4.150000e+000  8.000000e+000
      vertex  4.150000e+000 -5.850000e+000  8.000000e+000
    endloop
  endfacet
  facet normal  0.000000e+000  0.000000e+000  1.000000e+000
    outer loop
      vertex  4.150000e+000 -5.850000e+000  8.000000e+000
      vertex  5.850000e+000 -4.150000e+000  8.000000e+000
      vertex  4.000000e+000 -4.000000e+000  8.000000e+000
    endloop
  endfacet
  facet normal  0.000000e+000  0.000000e+000  1.000000e+000
    outer loop
      vertex  4.150000e+000 -5.850000e+000  8.000000e+000
      vertex  4.000000e+000 -4.000000e+000  8.000000e+000
      vertex -4.150000e+000 -5.850000e+000  8.000000e+000
    endloop
  endfacet
  facet normal  0.000000e+000  0.000000e+000  1.000000e+000
    outer loop
      vertex -4.150000e+000 -5.850000e+000  8.000000e+000
      vertex  4.000000e+000 -4.000000e+000  8.000000e+000
      vertex -4.000000e+000 -4.000000e+000  8.000000e+000
    endloop
  endfacet
  facet normal  0.000000e+000  0.000000e+000  1.000000e+000
    outer loop
      vertex -4.150000e+000 -5.850000e+000  8.000000e+000
      vertex -4.000000e+000 -4.000000e+000  8.000000e+000
      vertex -5.650000e+000 -5.650000e+000  8.000000e+000
    endloop
  endfacet
  facet normal  0.000000e+000  0.000000e+000  1.000000e+000
    outer loop
      vertex -5.650000e+000 -5.650000e+000  8.000000e+000
      vertex -4.000000e+000 -4.000000e+000  8.000000e+000
      vertex -5.850000e+000 -4.150000e+000  8.000000e+000
    endloop
  endfacet
  facet normal  0.000000e+000  0.000000e+000  1.000000e+000
    outer loop
      vertex -5.650000e+000 -5.650000e+000  8.000000e+000
      vertex -5.850000e+000 -4.150000e+000  8.000000e+000
      vertex -1.565000e+001 -5.650000e+000  8.000000e+000
    endloop
  endfacet
  facet normal  0.000000e+000  0.000000e+000  9.999999e-001
    outer loop
      vertex -1.565000e+001 -5.650000e+000  8.000000e+000
      vertex -5.850000e+000 -4.150000e+000  8.000000e+000
      vertex -1.415000e+001 -4.150000e+000  8.000000e+000
    endloop
  endfacet
  facet normal  0.000000e+000  0.000000e+000  1.000000e+000
    outer loop
      vertex -1.565000e+001 -5.650000e+000  8.000000e+000
      vertex -1.415000e+001 -4.150000e+000  8.000000e+000
      vertex -1.565000e+001 -4.440892e-015  8.000000e+000
    endloop
  endfacet
  facet normal  0.000000e+000  0.000000e+000  1.000000e+000
    outer loop
      vertex -5.650000e+000  5.650000e+000  8.000000e+000
      vertex -5.850000e+000  4.150000e+000  8.000000e+000
      vertex -4.150000e+000  5.850000e+000  8.000000e+000
    endloop
  endfacet
  facet normal  -0.000000e+000  0.000000e+000  1.000000e+000
    outer loop
      vertex -4.150000e+000  5.850000e+000  8.000000e+000
      vertex -5.850000e+000  4.150000e+000  8.000000e+000
      vertex -4.000000e+000  4.000000e+000  8.000000e+000
    endloop
  endfacet
  facet normal  0.000000e+000  -0.000000e+000  1.000000e+000
    outer loop
      vertex -4.150000e+000  5.850000e+000  8.000000e+000
      vertex -4.000000e+000  4.000000e+000  8.000000e+000
      vertex  4.150000e+000  5.850000e+000  8.000000e+000
    endloop
  endfacet
  facet normal  0.000000e+000  0.000000e+000  1.000000e+000
    outer loop
      vertex  4.150000e+000  5.850000e+000  8.000000e+000
      vertex -4.000000e+000  4.000000e+000  8.000000e+000
      vertex  4.000000e+000  4.000000e+000  8.000000e+000
    endloop
  endfacet
  facet normal  0.000000e+000  0.000000e+000  1.000000e+000
    outer loop
      vertex  4.150000e+000  5.850000e+000  8.000000e+000
      vertex  4.000000e+000  4.000000e+000  8.000000e+000
      vertex  5.650000e+000  5.650000e+000  8.000000e+000
    endloop
  endfacet
  facet normal  0.000000e+000  0.000000e+000  1.000000e+000
    outer loop
      vertex  5.650000e+000  5.650000e+000  8.000000e+000
      vertex  4.000000e+000  4.000000e+000  8.000000e+000
      vertex  5.850000e+000  4.150000e+000  8.000000e+000
    endloop
  endfacet
  facet normal  0.000000e+000  -0.000000e+000  1.000000e+000
    outer loop
      vertex  5.650000e+000  5.650000e+000  8.000000e+000
      vertex  5.850000e+000  4.150000e+000  8.000000e+000
      vertex  1.565000e+001  5.650000e+000  8.000000e+000
    endloop
  endfacet
  facet normal  0.000000e+000  0.000000e+000  9.999999e-001
    outer loop
      vertex  1.565000e+001  5.650000e+000  8.000000e+000
      vertex  5.850000e+000  4.150000e+000  8.000000e+000
      vertex  1.415000e+001  4.150000e+000  8.000000e+000
    endloop
  endfacet
  facet normal  -0.000000e+000  0.000000e+000  1.000000e+000
    outer loop
      vertex  1.565000e+001  5.650000e+000  8.000000e+000
      vertex  1.415000e+001  4.150000e+000  8.000000e+000
      vertex  1.565000e+001  4.078874e-015  8.000000e+000
    endloop
  endfacet
  facet normal  0.000000e+000  0.000000e+000  1.000000e+000
    outer loop
      vertex  1.565000e+001  4.078874e-015  8.000000e+000
      vertex  1.415000e+001  4.150000e+000  8.000000e+000
      vertex  1.415000e+001 -4.150000e+000  8.000000e+000
    endloop
  endfacet
  facet normal  -0.000000e+000  0.000000e+000  1.000000e+000
    outer loop
      vertex  1.565000e+001  4.078874e-015  8.000000e+000
      vertex  1.415000e+001 -4.150000e+000  8.000000e+000
      vertex  1.565000e+001 -5.650000e+000  8.000000e+000
    endloop
  endfacet
  facet normal  0.000000e+000  0.000000e+000  1.000000e+000
    outer loop
      vertex  4.150000e+000  5.850000e+000  8.000000e+000
      vertex  5.650000e+000  5.650000e+000  8.000000e+000
      vertex  4.150000e+000  1.415000e+001  8.000000e+000
    endloop
  endfacet
  facet normal  0.000000e+000  -0.000000e+000  1.000000e+000
    outer loop
      vertex  4.150000e+000  1.415000e+001  8.000000e+000
      vertex  5.650000e+000  5.650000e+000  8.000000e+000
      vertex  5.650000e+000  1.565000e+001  8.000000e+000
    endloop
  endfacet
  facet normal  0.000000e+000  0.000000e+000  1.000000e+000
    outer loop
      vertex  4.150000e+000  1.415000e+001  8.000000e+000
      vertex  5.650000e+000  1.565000e+001  8.000000e+000
      vertex -4.150000e+000  1.415000e+001  8.000000e+000
    endloop
  endfacet
  facet normal  0.000000e+000  0.000000e+000  1.000000e+000
    outer loop
      vertex -4.150000e+000  1.415000e+001  8.000000e+000
      vertex  5.650000e+000  1.565000e+001  8.000000e+000
      vertex  0.000000e+000  1.565000e+001  8.000000e+000
    endloop
  endfacet
  facet normal  0.000000e+000  0.000000e+000  1.000000e+000
    outer loop
      vertex -4.150000e+000  1.415000e+001  8.000000e+000
      vertex  0.000000e+000  1.565000e+001  8.000000e+000
      vertex -5.650000e+000  1.565000e+001  8.000000e+000
    endloop
  endfacet
  facet normal  0.000000e+000  0.000000e+000  9.999999e-001
    outer loop
      vertex -4.150000e+000 -1.415000e+001  8.000000e+000
      vertex -4.150000e+000 -5.850000e+000  8.000000e+000
      vertex -5.650000e+000 -1.565000e+001  8.000000e+000
    endloop
  endfacet
  facet normal  0.000000e+000  0.000000e+000  1.000000e+000
    outer loop
      vertex -5.650000e+000 -1.565000e+001  8.000000e+000
      vertex -4.150000e+000 -5.850000e+000  8.000000e+000
      vertex -5.650000e+000 -5.650000e+000  8.000000e+000
    endloop
  endfacet
  facet normal  0.000000e+000  0.000000e+000  1.000000e+000
    outer loop
      vertex -5.850000e+000 -4.150000e+000  8.000000e+000
      vertex -4.000000e+000 -4.000000e+000  8.000000e+000
      vertex -5.850000e+000  4.150000e+000  8.000000e+000
    endloop
  endfacet
  facet normal  0.000000e+000  -0.000000e+000  1.000000e+000
    outer loop
      vertex -5.850000e+000  4.150000e+000  8.000000e+000
      vertex -4.000000e+000 -4.000000e+000  8.000000e+000
      vertex -4.000000e+000  4.000000e+000  8.000000e+000
    endloop
  endfacet
  facet normal  0.000000e+000  0.000000e+000  9.999999e-001
    outer loop
      vertex  4.000000e+000 -4.000000e+000  8.000000e+000
      vertex  5.850000e+000 -4.150000e+000  8.000000e+000
      vertex  4.000000e+000  4.000000e+000  8.000000e+000
    endloop
  endfacet
  facet normal  0.000000e+000  -0.000000e+000  1.000000e+000
    outer loop
      vertex  4.000000e+000  4.000000e+000  8.000000e+000
      vertex  5.850000e+000 -4.150000e+000  8.000000e+000
      vertex  5.850000e+000  4.150000e+000  8.000000e+000
    endloop
  endfacet
  facet normal  -0.000000e+000  0.000000e+000  1.000000e+000
    outer loop
      vertex -1.565000e+001  5.650000e+000  8.000000e+000
      vertex -1.565000e+001 -4.440892e-015  8.000000e+000
      vertex -1.415000e+001 -4.150000e+000  8.000000e+000
    endloop
  endfacet
  facet normal  0.000000e+000  -0.000000e+000  1.000000e+000
    outer loop
      vertex -1.565000e+001  5.650000e+000  8.000000e+000
      vertex -1.415000e+001 -4.150000e+000  8.000000e+000
      vertex -1.415000e+001  4.150000e+000  8.000000e+000
    endloop
  endfacet
  facet normal  0.000000e+000  -0.000000e+000  9.999999e-001
    outer loop
      vertex -1.565000e+001  5.650000e+000  8.000000e+000
      vertex -1.415000e+001  4.150000e+000  8.000000e+000
      vertex -5.850000e+000  4.150000e+000  8.000000e+000
    endloop
  endfacet
  facet normal  0.000000e+000  -0.000000e+000  1.000000e+000
    outer loop
      vertex -1.565000e+001  5.650000e+000  8.000000e+000
      vertex -5.850000e+000  4.150000e+000  8.000000e+000
      vertex -5.650000e+000  5.650000e+000  8.000000e+000
    endloop
  endfacet
  facet normal  0.000000e+000  0.000000e+000  1.000000e+000
    outer loop
      vertex -5.650000e+000  1.565000e+001  8.000000e+000
      vertex -5.650000e+000  5.650000e+000  8.000000e+000
      vertex -4.150000e+000  1.415000e+001  8.000000e+000
    endloop
  endfacet
  facet normal  0.000000e+000  0.000000e+000  1.000000e+000
    outer loop
      vertex -4.150000e+000  1.415000e+001  8.000000e+000
      vertex -5.650000e+000  5.650000e+000  8.000000e+000
      vertex -4.150000e+000  5.850000e+000  8.000000e+000
    endloop
  endfacet
endsolid CATIA STL
